<?xml version="1.0" standalone="no"?>
<!DOCTYPE svg PUBLIC "-//W3C//DTD SVG 20010904//EN"
 "http://www.w3.org/TR/2001/REC-SVG-20010904/DTD/svg10.dtd">
<svg version="1.0" xmlns="http://www.w3.org/2000/svg"
 width="500.000000pt" height="501.000000pt" viewBox="0 0 500.000000 501.000000"
 preserveAspectRatio="xMidYMid meet">

<g transform="translate(0.000000,501.000000) scale(0.100000,-0.100000)"
fill="#000000" stroke="none">
<path d="M2287 5003 c-4 -3 -7 -24 -7 -45 0 -35 2 -38 28 -38 l29 0 6 -112 c4
-62 7 -166 7 -230 l0 -118 58 0 59 0 -5 230 -5 230 32 0 c30 0 31 1 31 45 l0
45 -113 0 c-63 0 -117 -3 -120 -7z"/>
<path d="M2640 4988 c0 -7 -7 -107 -15 -223 -18 -261 -20 -304 -14 -308 2 -3
43 -7 92 -10 l87 -6 0 43 c0 41 -2 44 -33 50 l-33 6 8 78 c3 42 7 78 7 80 1 1
17 2 36 2 35 0 35 0 35 45 0 43 -1 45 -29 45 -34 0 -37 6 -33 65 4 44 5 45 38
45 33 0 34 1 34 44 l0 43 -46 7 c-76 10 -134 7 -134 -6z"/>
<path d="M3024 4915 c-25 -39 -124 -381 -124 -431 0 -49 16 -66 85 -87 129
-39 143 -33 180 83 14 45 25 87 25 93 0 11 -71 37 -100 37 -5 0 -14 -19 -20
-42 -15 -60 -28 -88 -40 -88 -17 0 -12 26 36 196 34 117 51 164 62 164 15 0
15 -1 -5 -86 -4 -17 3 -22 47 -32 29 -7 55 -10 60 -7 11 7 30 88 30 130 0 34
-3 38 -55 61 -30 14 -79 28 -109 31 -51 5 -55 4 -72 -22z"/>
<path d="M1618 4845 c-25 -7 -66 -23 -90 -37 -41 -23 -43 -26 -42 -68 1 -48
132 -400 161 -432 9 -10 26 -18 38 -18 33 0 132 36 166 61 37 26 36 47 -4 150
-14 35 -47 120 -73 189 -43 112 -79 172 -101 169 -4 0 -29 -7 -55 -14z m67
-242 c61 -158 74 -203 56 -203 -14 0 -22 16 -81 170 -63 164 -67 180 -48 180
10 0 35 -51 73 -147z"/>
<path d="M3388 4712 c-147 -332 -169 -384 -166 -387 15 -13 72 -36 82 -32 6 3
31 50 56 105 24 56 46 100 47 98 3 -3 -16 -97 -42 -213 -4 -18 3 -25 42 -43
25 -11 50 -17 54 -13 4 5 41 85 83 179 41 94 89 202 107 239 17 37 27 70 23
75 -5 4 -26 15 -47 24 l-38 16 -19 -43 c-10 -23 -32 -73 -49 -112 -36 -83 -38
-65 -7 70 13 55 22 103 19 108 -5 9 -71 37 -87 37 -6 0 -32 -49 -58 -108z"/>
<path d="M1272 4684 c-12 -8 -32 -21 -45 -28 -44 -24 -127 -78 -127 -83 0 -2
12 -20 26 -38 24 -32 27 -33 49 -19 23 15 24 13 141 -176 65 -104 123 -190
128 -190 6 0 30 13 53 28 l42 28 -57 89 c-32 50 -78 123 -102 163 -25 40 -53
86 -63 102 -19 30 -19 30 4 49 l22 18 -22 37 c-12 20 -24 36 -25 36 -1 0 -12
-7 -24 -16z"/>
<path d="M4504 4676 c-130 -61 -171 -234 -83 -356 44 -60 98 -84 191 -85 69 0
80 3 119 30 69 49 102 104 107 178 6 88 -11 141 -61 191 -70 69 -178 86 -273
42z m197 -48 c48 -27 89 -103 89 -162 0 -48 -28 -112 -61 -143 -69 -63 -200
-55 -256 16 -57 71 -56 199 2 257 57 57 156 71 226 32z"/>
<path d="M4517 4573 c-3 -15 -4 -72 -4 -128 l2 -100 27 -3 c26 -3 27 -1 30 45
3 40 6 48 23 48 14 0 27 -14 43 -47 19 -41 26 -48 52 -48 17 0 30 5 30 13 -1
23 -39 97 -51 97 -7 0 0 11 15 25 33 30 34 68 1 100 -21 22 -33 25 -93 25 -68
0 -70 -1 -75 -27z m123 -53 c0 -28 -3 -30 -35 -30 -32 0 -35 2 -35 30 0 28 3
30 35 30 32 0 35 -2 35 -30z"/>
<path d="M3813 4558 c-57 -61 -253 -355 -253 -380 0 -29 12 -45 67 -86 59 -46
102 -62 129 -50 12 6 55 57 96 115 40 57 93 132 117 165 54 76 71 116 60 145
-13 34 -145 123 -184 123 0 0 -15 -15 -32 -32z m54 -175 c-26 -37 -71 -103
-100 -145 -31 -47 -59 -78 -69 -78 -10 0 -18 2 -18 5 0 5 46 73 125 185 74
106 88 121 98 111 7 -7 -5 -32 -36 -78z"/>
<path d="M920 4440 c-27 -24 -41 -43 -35 -47 6 -5 39 -42 75 -83 36 -41 67
-77 70 -80 3 -3 30 -34 60 -70 30 -36 60 -71 67 -78 15 -15 17 -42 4 -42 -4 0
-37 33 -72 73 -35 39 -66 74 -69 77 -3 3 -32 36 -65 75 -33 38 -70 80 -81 94
l-22 24 -43 -42 c-26 -24 -40 -44 -34 -48 6 -5 35 -37 65 -73 30 -36 57 -67
60 -70 3 -3 48 -53 99 -113 52 -59 103 -110 115 -113 12 -3 34 0 49 5 40 15
137 113 137 138 0 12 -19 45 -42 75 -38 48 -238 279 -277 320 -15 16 -19 14
-61 -22z"/>
<path d="M4031 4155 c-92 -91 -178 -174 -190 -185 l-23 -19 58 -66 c33 -36 64
-65 70 -65 5 0 22 13 37 28 l27 28 -20 22 c-11 11 -20 25 -20 30 0 5 72 77
161 162 l160 153 -37 38 c-21 22 -42 39 -46 39 -5 0 -84 -74 -177 -165z"/>
<path d="M2430 4186 c-30 -18 -145 -84 -255 -146 -110 -63 -261 -148 -335
-190 -74 -42 -252 -143 -395 -224 -143 -81 -306 -175 -362 -208 l-103 -60 0
-889 c0 -743 -2 -889 -14 -889 -8 0 -15 -17 -19 -47 -3 -27 -9 -57 -13 -68 -5
-14 -4 -17 4 -10 6 6 12 21 14 35 1 14 10 26 20 28 14 3 15 -2 8 -32 -4 -20
-4 -34 0 -31 4 2 10 18 13 35 4 18 13 30 22 30 16 0 15 -10 -3 -59 -3 -9 -1
-12 6 -8 6 4 13 21 17 37 10 45 35 39 29 -7 -4 -41 0 -36 10 10 4 15 13 27 22
27 12 0 14 -8 10 -37 l-5 -38 10 37 c15 52 42 52 35 1 l-5 -38 11 38 c6 20 18
37 26 37 11 0 13 -9 9 -37 l-5 -38 11 38 c6 20 17 37 25 37 11 0 13 -9 9 -37
l-5 -38 11 38 c15 51 42 51 33 0 -5 -29 -4 -34 4 -21 6 10 14 40 17 68 5 42 3
50 -10 50 -15 0 -17 75 -19 885 l-3 885 1245 0 1245 0 -3 -885 c-2 -776 -4
-885 -17 -885 -10 0 -15 -11 -15 -34 0 -18 -2 -49 -5 -67 l-5 -34 11 37 c6 20
17 39 26 42 12 5 14 -1 9 -36 l-5 -43 12 37 c14 43 22 52 36 44 6 -4 6 -17 -1
-37 -6 -16 -8 -32 -5 -36 3 -3 11 13 17 36 7 27 15 39 24 35 11 -4 12 -13 5
-37 -5 -17 -7 -33 -4 -35 2 -2 9 14 15 37 7 27 15 39 24 35 11 -4 12 -13 5
-37 -13 -47 -10 -47 11 1 31 69 51 49 23 -24 -4 -11 -3 -15 4 -11 6 4 13 20
16 37 10 46 37 40 31 -7 -4 -41 0 -36 10 10 10 43 36 35 30 -10 l-4 -38 12 39
c19 58 42 61 34 5 -4 -28 -3 -37 2 -24 5 11 12 40 15 64 5 37 3 44 -14 48 -19
5 -19 23 -17 894 l3 888 -315 179 c-173 99 -513 293 -756 431 -243 138 -447
251 -455 251 -8 0 -39 -16 -69 -34z m60 -392 c0 -221 -4 -364 -9 -362 -5 2
-76 59 -156 128 -195 165 -186 158 -220 188 -17 15 -54 47 -83 70 -28 24 -52
47 -52 50 0 4 10 12 23 18 31 14 382 212 437 245 25 15 48 28 53 28 4 1 7
-164 7 -365z m116 318 c143 -79 419 -235 424 -239 3 -3 -16 -23 -41 -46 -95
-86 -440 -378 -452 -382 -9 -4 -12 71 -12 350 0 195 3 355 6 355 3 0 37 -17
75 -38z m-532 -396 c72 -61 156 -131 186 -156 30 -25 68 -57 85 -71 16 -15 44
-38 60 -53 l30 -25 -257 -1 -258 0 0 216 c0 162 3 213 12 208 6 -4 70 -57 142
-118z m1003 -303 c-2 -2 -117 -2 -255 -1 l-251 3 72 60 c40 33 83 70 97 82 41
35 243 205 291 245 l44 36 3 -210 c1 -116 1 -213 -1 -215z m-1197 197 l0 -200
-362 0 -363 0 40 24 c22 12 132 75 245 138 113 64 252 143 310 176 58 33 111
61 118 61 9 1 12 -45 12 -199z m1384 132 c67 -38 200 -113 296 -167 96 -54
200 -113 230 -132 l54 -33 -362 0 -362 0 0 200 c0 145 3 200 12 200 6 0 66
-31 132 -68z m-2216 -484 l26 -28 -27 -28 c-24 -25 -27 -35 -27 -104 0 -71 2
-78 27 -98 l26 -20 -26 -28 c-24 -25 -27 -36 -27 -102 0 -67 3 -77 28 -103
l27 -29 -27 -22 c-26 -20 -28 -27 -28 -95 0 -63 4 -79 25 -106 l24 -32 -24
-23 c-22 -21 -25 -32 -25 -99 0 -67 3 -78 26 -102 l26 -28 -26 -24 c-24 -22
-26 -31 -26 -101 0 -71 2 -79 28 -101 l27 -25 -27 -25 c-26 -22 -28 -29 -28
-104 0 -74 2 -81 27 -101 l26 -20 -26 -28 c-16 -17 -27 -42 -30 -67 -2 -22 -4
360 -4 850 0 490 2 874 4 855 3 -20 16 -47 31 -62z m113 52 l-44 -39 -38 32
c-21 18 -39 35 -39 40 0 4 37 7 83 7 l82 -1 -44 -39z m57 -847 c-1 -489 -3
-870 -5 -848 -3 25 -14 50 -29 66 l-24 25 25 24 c23 21 25 31 25 104 0 75 -2
82 -27 104 l-28 24 28 20 c26 19 27 24 27 101 0 73 -3 84 -25 107 l-25 26 25
24 c23 21 25 31 25 101 0 71 -2 80 -25 102 l-26 23 26 24 c23 21 25 31 25 105
0 74 -2 84 -25 105 l-26 24 26 23 c23 22 25 31 25 100 0 68 -3 80 -25 103
l-25 26 25 24 c23 21 25 31 25 106 0 78 -1 84 -27 104 l-28 22 28 20 c21 16
27 28 27 59 0 21 2 39 5 39 3 0 4 -399 3 -887z m2572 851 c0 -27 7 -43 27 -60
l27 -23 -27 -21 c-25 -20 -27 -26 -27 -104 0 -75 2 -85 25 -106 l25 -24 -25
-22 c-20 -17 -25 -31 -25 -65 l0 -43 43 42 c23 23 46 42 50 42 5 0 27 -19 50
-42 l42 -43 -45 -42 -46 -42 -47 40 -47 41 0 -41 c0 -30 5 -43 20 -51 25 -14
25 -28 -1 -56 -15 -16 -19 -32 -17 -58 l3 -37 44 41 44 41 46 -45 46 -46 -26
-23 c-13 -12 -35 -31 -47 -41 l-23 -20 -44 44 -45 44 0 -40 c0 -28 6 -47 20
-59 11 -10 20 -23 20 -29 0 -7 -9 -18 -20 -26 -17 -12 -20 -26 -20 -94 0 -72
3 -83 25 -106 l25 -26 -25 -24 c-19 -18 -25 -34 -25 -64 l0 -40 45 44 45 44
45 -44 c25 -24 44 -47 43 -50 -2 -4 -22 -23 -44 -43 l-41 -37 -47 41 -46 41 0
-37 c0 -28 7 -43 26 -60 l27 -23 -27 -23 c-24 -21 -26 -29 -26 -104 0 -74 2
-84 25 -105 l25 -24 -24 -25 c-15 -16 -26 -41 -29 -66 -2 -22 -5 359 -8 848
-2 488 -1 887 4 887 4 0 7 -16 7 -36z m180 25 c-14 -6 -39 -24 -56 -40 l-31
-30 -44 40 -44 40 100 0 c76 0 94 -3 75 -10z m10 -109 l0 -51 -27 25 -27 25
24 26 c13 14 25 25 27 25 2 0 3 -23 3 -50z m-2781 -127 c1 -12 -68 -83 -82
-83 -4 0 -27 18 -50 39 l-42 40 44 45 45 45 42 -37 c23 -20 43 -42 43 -49z
m2746 -31 c-66 -60 -62 -59 -105 -17 -22 22 -40 43 -40 48 0 5 19 27 42 48
l43 39 45 -45 45 -45 -30 -28z m36 -98 l-3 -46 -27 26 -26 27 25 19 c14 11 27
20 30 20 3 0 3 -21 1 -46z m-2819 -81 c21 -20 38 -42 38 -48 0 -5 -19 -27 -42
-47 l-42 -36 -36 30 c-56 49 -57 55 -10 99 22 21 44 39 47 39 4 0 24 -17 45
-37z m2818 -173 l0 -51 -27 25 -27 25 24 26 c13 14 25 25 27 25 2 0 3 -23 3
-50z m-2815 -170 c-21 -22 -44 -40 -50 -40 -5 1 -28 19 -50 40 l-40 39 45 46
44 45 45 -45 45 -45 -39 -40z m2815 -82 l0 -53 -27 27 -27 27 24 26 c13 14 25
25 27 25 2 0 3 -24 3 -52z m-2818 -85 c21 -20 38 -41 38 -45 0 -5 -19 -27 -42
-48 l-43 -40 -45 45 -44 45 39 40 c21 22 44 40 49 40 6 0 27 -17 48 -37z
m2773 -3 l40 -41 -40 -39 c-22 -21 -44 -39 -50 -39 -13 -1 -85 62 -85 74 0 13
72 85 85 85 6 0 29 -18 50 -40z m41 -208 c-5 -5 -46 35 -46 45 0 3 10 13 23
23 l22 18 3 -40 c2 -22 1 -43 -2 -46z m-2798 -58 c31 -25 28 -36 -18 -78 l-41
-36 -44 37 c-25 20 -45 39 -45 42 0 3 19 24 42 48 41 42 42 42 62 24 12 -10
31 -27 44 -37z m2802 -156 l0 -53 -27 27 -27 27 24 26 c13 14 25 25 27 25 2 0
3 -24 3 -52z m-2815 -168 c-21 -22 -44 -40 -50 -40 -6 0 -29 18 -50 40 l-39
40 44 45 44 45 45 -45 45 -45 -39 -40z m2770 0 c-22 -21 -45 -39 -50 -40 -6 0
-29 18 -50 40 l-39 40 44 45 44 45 46 -45 45 -45 -40 -40z m45 -87 l0 -48 -27
27 c-27 27 -27 28 -8 47 30 30 35 26 35 -26z m-2815 -83 l39 -40 -82 0 c-45 0
-82 3 -82 6 0 7 72 73 80 74 3 0 24 -18 45 -40z m2758 5 c20 -20 37 -37 37
-40 0 -3 -37 -5 -82 -5 l-82 0 39 40 c21 22 42 40 45 40 3 0 22 -16 43 -35z"/>
<path d="M592 4107 c-38 -45 -70 -86 -69 -92 1 -5 14 -21 30 -34 26 -22 29
-22 46 -7 10 9 21 16 26 16 4 0 44 -33 89 -72 269 -238 248 -223 272 -195 61
70 70 50 -88 189 -79 68 -156 136 -173 150 -29 26 -30 26 -11 47 19 21 19 21
0 42 -41 45 -47 43 -122 -44z"/>
<path d="M4395 4033 c-25 -13 -91 -61 -293 -210 -48 -36 -72 -64 -72 -85 0
-17 47 -96 82 -139 23 -28 55 -40 81 -30 39 15 356 251 374 278 16 24 15 28
-8 71 -28 55 -99 132 -120 132 -8 -1 -27 -8 -44 -17z m59 -122 c7 -10 -272
-221 -291 -221 -33 0 -5 32 83 95 199 145 198 144 208 126z"/>
<path d="M399 3858 c-7 -13 -18 -33 -26 -44 -16 -24 -46 -1 257 -199 91 -60
172 -110 180 -112 16 -4 79 89 64 94 -5 2 -45 27 -89 55 -44 29 -141 92 -215
140 -74 48 -140 88 -147 88 -7 0 -18 -10 -24 -22z"/>
<path d="M4640 3660 c-14 -4 -74 -31 -135 -60 -60 -29 -134 -63 -163 -76 -84
-37 -112 -61 -112 -95 0 -46 26 -97 60 -118 19 -11 27 -22 21 -25 -13 -9 -14
-36 -2 -55 7 -11 29 -4 114 37 58 27 114 53 126 57 17 5 20 12 15 28 -6 19
-42 97 -49 105 -6 7 -75 -30 -75 -41 0 -14 -60 -47 -85 -47 -8 0 -15 6 -15 13
1 12 303 158 328 157 23 0 7 -24 -27 -42 -45 -23 -45 -20 -21 -77 l22 -50 37
15 c20 8 53 26 74 40 47 31 48 56 6 144 -47 100 -60 109 -119 90z"/>
<path d="M235 3554 c-25 -53 -45 -100 -45 -105 0 -13 60 -41 76 -35 8 3 14 12
14 21 0 24 19 19 136 -36 60 -28 147 -68 192 -90 46 -21 87 -39 91 -39 10 0
52 90 47 99 -3 4 -95 49 -205 100 -179 83 -199 95 -191 111 16 30 12 39 -26
55 -20 8 -38 15 -41 15 -2 0 -24 -43 -48 -96z"/>
<path d="M1546 3298 c-3 -7 -25 -98 -50 -203 -25 -104 -71 -293 -101 -420 -31
-126 -72 -296 -90 -378 l-35 -147 34 -148 c19 -81 76 -320 126 -532 50 -212
97 -410 104 -440 l13 -55 942 0 943 0 63 250 c35 138 101 401 148 587 l86 336
-29 114 c-34 138 -204 796 -230 893 -10 39 -24 89 -30 113 l-11 42 -940 0
c-743 0 -940 -3 -943 -12z m228 -36 c2 -4 0 -14 -5 -22 -8 -13 -10 -13 -19 0
-5 8 -10 18 -10 23 0 10 28 9 34 -1z m706 -252 l0 -260 -22 3 c-18 2 -24 -4
-26 -26 -2 -16 2 -34 8 -42 8 -10 -6 -24 -67 -64 -43 -28 -82 -51 -88 -51 -5
0 -27 26 -47 57 -33 51 -35 58 -20 69 14 10 15 18 5 55 -14 55 -4 76 42 85 40
7 40 8 49 50 6 28 4 32 -24 44 -44 18 -56 54 -35 101 16 34 16 38 0 63 -19 29
-30 31 -71 15 -41 -15 -70 4 -78 51 -5 32 -10 38 -38 44 -25 5 -35 3 -43 -10
-40 -66 -72 -79 -119 -49 -25 17 -86 97 -86 114 0 8 99 11 330 11 l330 0 0
-260z m927 210 c8 -25 41 -151 74 -280 33 -129 83 -323 111 -430 27 -107 56
-220 63 -250 8 -30 17 -63 20 -72 7 -17 -15 -18 -381 -17 -360 1 -413 6 -261
24 60 7 64 12 51 63 -8 28 -28 28 -98 1 -31 -11 -60 -18 -66 -14 -15 10 -70
-34 -70 -56 0 -10 -4 -19 -10 -19 -15 0 -12 56 3 69 8 6 28 14 45 17 18 4 29
10 26 15 -9 16 -67 9 -88 -10 -12 -10 -42 -21 -67 -24 -42 -6 -48 -4 -67 22
-15 21 -34 31 -63 36 l-42 7 23 18 c22 17 23 21 11 44 -11 20 -17 23 -33 15
-22 -12 -15 -29 13 -29 30 0 22 -20 -12 -27 -19 -3 -28 -10 -25 -19 3 -7 -2
-15 -10 -18 -23 -9 -34 -7 -34 4 0 6 7 10 15 10 19 0 19 7 -1 27 -25 25 -14
75 20 92 23 10 34 11 48 2 25 -15 24 1 -3 57 -19 38 -20 47 -9 70 17 35 17 83
0 155 -13 57 -14 59 -42 53 l-28 -5 0 253 c0 139 3 256 7 259 3 4 200 6 437 5
l430 -3 13 -45z m-1323 -56 c3 -9 6 -24 6 -35 0 -30 60 -55 99 -41 24 9 34 8
46 -4 13 -13 12 -19 -2 -48 -23 -49 -11 -100 27 -116 45 -18 42 -57 -5 -66
-49 -9 -71 -45 -56 -93 8 -29 8 -39 -4 -51 -13 -13 -19 -12 -45 4 -43 25 -86
14 -112 -30 -28 -47 -51 -44 -79 13 -32 63 -55 77 -94 57 -25 -13 -30 -13 -43
0 -13 13 -13 18 1 40 32 49 18 105 -31 125 -42 17 -33 51 13 51 27 0 35 5 45
30 8 19 10 48 6 76 -7 53 8 65 57 43 48 -22 83 -13 107 27 23 36 54 45 64 18z
m-393 -154 c4 0 9 12 12 28 13 59 24 61 66 12 42 -49 43 -60 5 -60 -13 0 -24
-4 -24 -9 0 -5 -3 -22 -6 -39 -6 -27 -3 -31 29 -41 43 -15 53 -45 31 -97 -15
-35 -15 -40 1 -66 25 -42 -4 -37 -40 7 -25 32 -32 35 -59 29 -36 -8 -46 -19
-46 -55 0 -42 -30 -62 -83 -54 -42 7 -44 6 -56 -24 -12 -27 -11 -33 8 -57 32
-41 27 -75 -14 -102 -30 -19 -34 -26 -29 -50 10 -38 11 -40 47 -47 52 -11 69
-33 65 -83 -3 -38 0 -45 24 -59 25 -16 28 -15 61 10 22 17 42 24 56 20 11 -3
21 -8 21 -12 0 -3 10 -19 23 -34 20 -26 25 -27 54 -17 26 9 33 18 38 50 8 49
33 74 42 42 3 -12 10 -22 15 -22 5 0 6 -5 2 -12 -5 -8 2 -9 27 -3 19 4 47 8
63 9 26 1 30 -4 42 -44 8 -25 14 -48 14 -52 0 -5 -171 -8 -380 -8 -209 0 -380
1 -380 3 0 2 32 136 71 298 111 460 159 662 159 673 1 6 31 -22 68 -62 37 -40
70 -72 73 -72z m64 -289 c14 -16 39 -31 57 -35 28 -6 36 -3 54 19 31 39 55 25
48 -29 -6 -37 -3 -46 20 -69 15 -15 37 -27 49 -27 24 0 47 -17 47 -35 0 -6
-13 -16 -29 -22 -41 -15 -50 -61 -22 -109 26 -43 26 -44 2 -44 -22 0 -78 -24
-103 -43 -10 -8 -21 -32 -26 -53 -10 -50 -40 -58 -64 -16 -25 43 -70 49 -112
17 -28 -21 -35 -23 -45 -11 -6 8 -11 29 -10 47 4 50 -24 86 -72 94 -31 5 -39
11 -39 29 0 14 11 28 30 39 17 10 30 24 30 30 0 7 3 21 6 33 4 14 -3 31 -20
50 -33 40 -21 59 36 55 51 -3 81 23 93 77 9 41 37 43 70 3z m801 2 c-10 -10
-19 5 -10 18 6 11 8 11 12 0 2 -7 1 -15 -2 -18z m-78 -17 c3 -12 -1 -17 -10
-14 -7 3 -15 13 -16 22 -3 12 1 17 10 14 7 -3 15 -13 16 -22z m-326 -77 c16
10 22 8 37 -11 10 -13 27 -34 38 -47 18 -22 18 -28 7 -50 -7 -14 -16 -39 -19
-55 -3 -15 -24 -44 -45 -64 -22 -19 -40 -39 -40 -43 0 -24 60 -101 97 -125 38
-24 48 -44 22 -44 -6 0 -8 4 -4 9 3 6 -3 15 -14 20 -23 13 -44 14 -37 3 2 -4
1 -14 -3 -21 -5 -8 -15 5 -29 38 -11 28 -26 51 -31 51 -6 0 -11 9 -11 20 0 19
-62 70 -85 70 -17 0 -55 74 -49 96 3 10 20 26 39 34 33 15 33 16 22 50 -10 29
-18 36 -50 41 -36 6 -66 31 -67 57 0 19 18 14 25 -8 5 -15 15 -20 43 -20 32 0
39 4 51 32 l14 31 35 -38 c30 -33 38 -36 54 -26z m328 -3 c0 -19 -8 -27 -37
-37 -21 -6 -60 -23 -86 -36 -74 -37 -93 -25 -27 18 132 86 150 93 150 55z m0
-56 c0 -5 -19 -14 -42 -21 -24 -6 -56 -18 -72 -26 -18 -9 -26 -10 -21 -3 8 13
103 60 123 60 6 0 12 -4 12 -10z m70 -70 c-19 -13 -30 -13 -30 0 0 6 10 10 23
10 18 0 19 -2 7 -10z m-74 -7 c-9 -9 -100 -33 -105 -27 -2 2 11 10 30 18 35
16 88 22 75 9z m81 -19 c-3 -3 -12 -4 -19 -1 -8 3 -5 6 6 6 11 1 17 -2 13 -5z
m-92 -14 c-11 -5 -27 -9 -35 -9 -13 -1 -13 0 0 9 8 5 24 9 35 9 l20 0 -20 -9z
m-121 -37 c10 -62 7 -95 -6 -91 -12 4 -29 114 -19 124 11 11 19 1 25 -33z
m241 27 c-3 -5 -21 -10 -38 -10 -24 0 -28 3 -17 10 20 13 63 13 55 0z m-302
-52 c5 -53 3 -67 -9 -55 -12 11 -17 107 -7 107 6 0 13 -24 16 -52z m197 44 c0
-4 -13 -13 -30 -19 -35 -13 -42 3 -7 17 28 11 37 12 37 2z m-80 -42 c0 -5 -2
-10 -4 -10 -3 0 -8 5 -11 10 -3 6 -1 10 4 10 6 0 11 -4 11 -10z m-150 -66 c0
-19 5 -44 10 -55 7 -12 7 -19 1 -19 -10 0 -31 62 -31 93 0 9 5 17 10 17 6 0
10 -16 10 -36z m228 -77 c4 -31 -12 -35 -46 -11 -28 19 -28 31 1 37 35 7 42 2
45 -26z m159 16 c6 -17 -37 -42 -77 -45 -50 -4 -52 24 -3 45 43 17 75 18 80 0z
m-171 -53 c8 0 14 -4 14 -10 0 -5 -4 -10 -9 -10 -15 0 -74 45 -79 60 -3 8 9 2
27 -13 18 -15 39 -27 47 -27z m184 20 c0 -14 -68 -40 -104 -39 -25 1 -20 3 22
14 30 7 59 18 65 24 14 14 17 14 17 1z m135 -49 c5 -17 4 -22 -6 -19 -8 3 -15
18 -17 34 -4 33 11 24 23 -15z m-42 7 c4 -12 4 -24 1 -27 -6 -7 -24 20 -24 37
0 21 17 13 23 -10z m-623 -2 c0 -8 -4 -17 -9 -21 -12 -7 -24 12 -16 25 9 15
25 12 25 -4z m43 -19 c-3 -5 -10 -4 -15 1 -6 6 -7 16 -3 22 6 9 9 9 16 -1 4
-7 5 -17 2 -22z m207 19 c0 -15 -21 -26 -48 -26 -13 0 -12 3 4 19 23 23 44 27
44 7z m-662 -83 c-9 -10 -21 -35 -28 -56 l-12 -37 -28 20 c-37 27 -86 36 -105
20 -22 -18 -19 -50 10 -104 14 -26 25 -49 25 -51 0 -2 -19 -9 -42 -16 -43 -11
-78 -34 -78 -51 0 -13 62 -48 85 -48 19 0 19 0 -1 14 -11 8 -30 16 -43 18 -57
8 -19 47 59 62 29 5 37 2 56 -21 20 -25 20 -29 7 -50 -9 -13 -25 -24 -37 -24
-15 -1 -16 -3 -5 -6 14 -3 12 -12 -17 -55 -41 -61 -47 -118 -13 -118 12 0 44
13 70 30 l49 30 0 -30 c0 -17 5 -30 10 -30 6 0 10 -6 10 -14 0 -7 9 -25 20
-39 11 -14 20 -39 20 -55 0 -17 5 -34 10 -37 6 -3 10 -15 10 -26 0 -14 -7 -19
-30 -19 -29 0 -30 -1 -30 -49 l0 -50 76 -47 c61 -38 85 -48 118 -47 31 1 21
-4 -46 -20 -69 -16 -88 -25 -88 -38 0 -19 116 -129 135 -129 26 0 262 53 300
67 22 8 66 20 98 26 31 6 57 14 57 18 0 18 -136 109 -164 109 -13 0 -16 11
-16 60 0 55 -2 60 -22 60 -13 1 -36 7 -53 15 -29 13 -29 14 -7 20 13 5 22 16
23 29 4 71 3 144 -2 141 -3 -2 -5 17 -5 43 l1 47 -68 5 c-67 5 -68 5 -97 50
-32 49 -30 53 31 64 34 6 36 5 32 -17 -8 -40 35 -49 196 -45 111 2 141 0 141
-10 0 -17 30 -74 45 -87 7 -5 15 -21 18 -35 15 -61 67 -81 67 -25 0 16 6 25
15 25 13 0 15 -37 13 -291 l-3 -292 -443 0 c-243 0 -445 3 -447 5 -3 3 -50
196 -105 429 -55 233 -114 479 -130 546 -17 67 -30 125 -30 128 0 3 91 5 202
5 191 0 200 -1 186 -17z m321 -2 l25 -19 -21 -107 c-12 -59 -23 -108 -25 -110
-2 -2 -30 4 -63 13 l-61 17 23 40 c13 23 22 53 21 70 -3 28 -6 30 -41 29 -20
-1 -46 -9 -56 -18 -25 -23 -41 -20 -41 8 0 13 -11 40 -25 60 l-24 36 132 0
c114 0 135 -3 156 -19z m59 12 c-10 -2 -26 -2 -35 0 -10 3 -2 5 17 5 19 0 27
-2 18 -5z m100 0 c-10 -2 -28 -2 -40 0 -13 2 -5 4 17 4 22 1 32 -1 23 -4z m80
0 c-10 -2 -26 -2 -35 0 -10 3 -2 5 17 5 19 0 27 -2 18 -5z m108 -29 c3 -27 0
-33 -22 -38 -14 -4 -30 -4 -35 0 -12 7 -41 -21 -52 -48 -5 -16 -21 -18 -111
-18 -80 0 -104 3 -102 13 3 6 7 25 11 40 l6 28 17 -21 c15 -18 28 -22 81 -22
43 0 68 5 80 16 10 9 25 16 34 16 13 0 17 9 17 36 0 34 1 35 36 32 33 -3 37
-6 40 -34z m31 -16 c-2 -13 -4 -5 -4 17 -1 22 1 32 4 23 2 -10 2 -28 0 -40z
m173 17 c0 -19 -4 -35 -10 -35 -5 0 -10 16 -10 35 0 19 5 35 10 35 6 0 10 -16
10 -35z m71 9 c-18 -15 -33 -39 -37 -60 -10 -54 -24 -40 -24 24 l0 58 46 2 45
2 -30 -26z m132 -14 c38 0 42 -2 42 -25 0 -24 -3 -25 -62 -25 -66 0 -113 15
-113 36 0 7 12 21 27 32 25 18 27 18 45 0 12 -12 32 -18 61 -18z m184 34 c13
-4 20 -11 16 -20 -6 -17 20 -19 48 -4 28 16 23 1 -17 -49 -33 -43 -43 -47 -94
-42 -25 3 -6 85 23 100 21 10 21 11 -3 4 -14 -3 -38 -6 -55 -6 -113 1 -155 4
-155 13 0 11 199 14 237 4z m709 -11 c-10 -35 -57 -217 -166 -648 -61 -242
-113 -441 -114 -443 -2 -1 -198 -2 -437 -2 l-434 0 -3 319 -2 320 52 36 c55
36 58 46 8 20 l-29 -15 -16 52 c-8 28 -15 57 -15 64 0 16 24 24 76 24 24 0 44
5 44 10 0 10 -29 8 -97 -6 -22 -4 -23 -1 -23 50 0 36 5 60 16 70 12 12 12 16
2 16 -9 1 -7 5 5 14 9 7 17 21 17 30 0 9 5 16 10 16 6 0 10 -6 10 -14 0 -8 -4
-18 -10 -21 -21 -13 -8 -25 26 -25 29 0 48 -10 89 -45 46 -39 53 -50 58 -91 3
-26 3 -53 1 -59 -3 -6 -29 -19 -59 -29 -63 -20 -71 -27 -20 -19 21 3 41 1 50
-7 10 -9 32 -10 72 -6 85 10 92 13 85 39 -7 31 -63 93 -80 89 -8 -2 -12 2 -9
10 2 7 10 12 16 11 18 -5 13 17 -15 55 -15 21 -54 54 -86 75 -33 21 -58 41
-55 44 3 2 14 0 24 -5 10 -6 64 -13 120 -17 57 -4 110 -13 119 -20 26 -19 -1
-52 -48 -59 -34 -6 -39 -10 -36 -29 2 -14 11 -23 25 -25 24 -4 38 -32 28 -61
-3 -10 -1 -30 4 -45 11 -28 38 -34 71 -16 13 7 21 7 25 0 3 -5 19 -10 35 -10
29 0 40 15 40 56 0 17 6 24 20 24 13 0 20 -7 20 -20 0 -19 7 -20 105 -20 63 0
105 -4 105 -10 0 -6 -28 -10 -65 -10 l-65 0 0 -40 c0 -29 4 -40 15 -40 8 0 15
-4 15 -10 0 -6 43 -10 110 -10 l110 0 0 40 c0 29 -4 40 -15 40 -8 0 -15 5 -15
10 0 6 -16 10 -35 10 -19 0 -35 5 -35 10 0 6 40 10 99 10 91 0 100 2 106 20 4
14 15 20 36 20 26 0 29 3 29 30 0 20 -5 30 -15 30 -8 0 -15 5 -15 10 0 6 -30
10 -70 10 l-70 0 0 -36 c0 -19 4 -33 9 -29 5 3 12 1 16 -5 3 -5 19 -10 36 -10
19 0 29 -5 29 -15 0 -12 -17 -15 -95 -15 -78 0 -95 3 -95 15 0 10 10 15 30 15
27 0 30 3 30 30 0 20 -5 30 -15 30 -8 0 -15 5 -15 10 0 6 -8 11 -17 12 -10 1
29 5 87 8 l105 6 -102 2 c-103 2 -103 2 -103 27 0 14 -4 25 -10 25 -5 0 -10
-11 -10 -25 l0 -25 -132 0 c-73 0 -138 4 -144 8 -29 20 -32 46 -8 77 13 17 30
48 39 68 l15 37 306 0 c286 0 305 -1 300 -17z m-1912 -35 c27 -66 26 -82 0
-102 -25 -18 -26 -18 -55 10 -32 31 -33 56 -3 102 20 31 43 27 58 -10z m362 7
c4 -10 20 -15 49 -15 26 0 47 6 55 15 16 20 40 19 40 -1 0 -20 -59 -44 -109
-44 -41 0 -71 20 -71 46 0 19 29 18 36 -1z m84 5 c0 -5 -16 -10 -35 -10 -19 0
-35 5 -35 10 0 6 16 10 35 10 19 0 35 -4 35 -10z m268 -16 c0 -24 -2 -25 -17
-10 -14 15 -14 18 -1 26 8 5 16 10 16 10 1 0 2 -12 2 -26z m414 -11 c-5 -27
-5 -27 -14 -4 -8 24 -2 45 11 36 5 -2 6 -17 3 -32z m-32 2 c0 -14 -4 -25 -10
-25 -5 0 -10 11 -10 25 0 14 5 25 10 25 6 0 10 -11 10 -25z m-1245 -28 c38
-21 40 -26 43 -74 l3 -51 -37 -4 c-33 -4 -38 -1 -59 32 -30 48 -41 100 -24
111 20 13 30 11 74 -14z m300 -34 c-10 -55 -41 -93 -74 -93 -26 0 -29 4 -35
41 -4 23 -5 42 -4 43 53 34 77 46 97 46 21 0 23 -3 16 -37z m465 21 c0 -24 47
-64 76 -64 23 0 24 -2 24 -70 0 -49 -4 -70 -12 -71 -10 0 -10 -2 0 -6 17 -7
15 -30 -3 -37 -13 -5 -20 5 -16 27 0 4 -13 7 -29 7 -75 0 -140 57 -140 123 0
26 6 40 22 51 l22 16 -22 0 c-47 0 7 38 56 39 14 1 22 -5 22 -15z m54 -43 c-8
-9 -34 23 -34 43 0 18 2 17 19 -9 10 -16 17 -32 15 -34z m224 22 c2 -8 -5 -13
-17 -13 -12 0 -21 6 -21 16 0 18 31 15 38 -3z m-951 -35 c21 -20 22 -23 6 -40
-27 -30 -43 -22 -43 22 0 46 5 48 37 18z m773 12 c0 -5 -7 -10 -15 -10 -8 0
-15 5 -15 10 0 6 7 10 15 10 8 0 15 -4 15 -10z m220 6 c0 -11 -19 -15 -25 -6
-3 5 1 10 9 10 9 0 16 -2 16 -4z m280 0 c0 -2 3 -11 6 -20 5 -13 -1 -16 -30
-16 -39 0 -39 0 -30 24 5 14 54 24 54 12z m-1184 -74 c-3 -3 -15 3 -26 13 -19
17 -19 19 -3 37 17 19 18 19 26 -12 4 -18 6 -35 3 -38z m454 53 c0 -12 -18
-15 -100 -15 -82 0 -100 3 -100 15 0 12 18 15 100 15 82 0 100 -3 100 -15z
m480 -16 c0 -11 -4 -17 -10 -14 -5 3 -10 13 -10 21 0 8 5 14 10 14 6 0 10 -9
10 -21z m-472 -31 c-3 -22 -8 -23 -97 -26 -95 -3 -125 6 -114 34 4 11 28 14
110 14 103 0 104 0 101 -22z m515 2 c4 -15 0 -20 -14 -20 -18 0 -26 20 -12 33
11 12 21 8 26 -13z m-1018 0 c3 -5 -3 -10 -15 -10 -12 0 -18 5 -15 10 3 6 10
10 15 10 5 0 12 -4 15 -10z m1503 3 c-44 -4 -48 -6 -48 -30 0 -31 25 -52 63
-53 17 0 27 -5 27 -15 0 -12 -17 -15 -95 -15 -78 0 -95 3 -95 15 0 10 10 15
30 15 27 0 30 3 30 30 0 20 -5 30 -15 30 -8 0 -15 4 -15 9 0 5 -8 12 -17 14
-10 3 27 4 82 4 55 0 79 -2 53 -4z m-1583 -33 c-4 -6 -11 -8 -16 -5 -5 4 -9
-3 -9 -14 0 -26 -12 -27 -34 -2 -13 15 -14 20 -4 24 24 10 69 7 63 -3z m124
-33 c3 -51 -20 -77 -67 -77 -66 0 -93 52 -50 97 18 19 31 23 68 22 l46 -2 3
-40z m49 26 c-2 -10 -10 -18 -18 -18 -8 0 -16 8 -18 18 -2 12 3 17 18 17 15 0
20 -5 18 -17z m1114 -3 c21 0 38 -4 38 -10 0 -5 -17 -10 -38 -10 -37 0 -62 14
-62 34 0 6 5 5 12 -2 7 -7 29 -12 50 -12z m26 13 c-10 -2 -28 -2 -40 0 -13 2
-5 4 17 4 22 1 32 -1 23 -4z m-1048 -13 c55 -16 64 -24 51 -47 -14 -27 -97
-49 -118 -32 -27 23 -33 45 -17 67 17 24 33 27 84 12z m1220 -10 c0 -18 -7
-20 -55 -20 -48 0 -55 2 -55 20 0 18 7 20 55 20 48 0 55 -2 55 -20z m205 0 c0
-11 -14 -16 -57 -18 -53 -3 -58 -1 -58 18 0 19 5 21 58 18 43 -2 57 -7 57 -18z
m205 0 c0 -18 -7 -20 -55 -20 -48 0 -55 2 -55 20 0 18 7 20 55 20 48 0 55 -2
55 -20z m-1286 1 c4 -5 3 -16 0 -25 -5 -13 -26 -16 -130 -16 -114 0 -124 2
-124 18 0 10 3 22 7 25 10 11 241 8 247 -2z m-435 -60 c9 -15 7 -20 -9 -24
-23 -6 -33 5 -24 27 8 21 21 20 33 -3z m461 5 c0 -45 -5 -46 -162 -46 -133 0
-149 2 -144 16 3 9 6 20 6 25 0 4 64 10 143 12 78 1 145 4 150 5 4 1 7 -4 7
-12z m-660 -16 c0 -13 -5 -18 -15 -14 -16 7 -19 17 -8 27 12 13 23 7 23 -13z
m716 10 c29 -10 29 -11 24 -77 -3 -37 -10 -68 -16 -70 -14 -5 -58 123 -50 143
6 17 6 17 42 4z m460 -4 c19 -19 18 -26 -4 -26 -11 0 -18 8 -19 20 -2 24 3 25
23 6z m108 6 c8 -13 -11 -35 -23 -28 -16 10 -14 36 3 36 8 0 17 -4 20 -8z m94
-9 c-2 -10 -10 -18 -18 -18 -8 0 -16 8 -18 18 -2 12 3 17 18 17 15 0 20 -5 18
-17z m-1228 -13 c0 -5 -5 -10 -11 -10 -5 0 -7 5 -4 10 3 6 8 10 11 10 2 0 4
-4 4 -10z m-148 -34 c6 -8 8 -7 8 2 0 17 35 15 50 -3 10 -12 8 -18 -11 -34
-24 -19 -24 -19 -31 2 -5 19 -6 18 -7 -7 -1 -16 -9 -35 -18 -43 -25 -19 -90
-53 -103 -53 -25 0 -4 67 42 133 15 21 25 26 41 21 12 -4 25 -12 29 -18z m251
-20 c15 -24 27 -45 27 -47 0 -2 -27 -4 -60 -4 -33 0 -60 3 -60 8 0 69 1 76 18
79 41 9 49 4 75 -36z m925 27 c11 -4 3 -9 -28 -13 -52 -9 -61 -5 -35 14 19 13
26 13 63 -1z m-1088 3 c0 -11 -19 -15 -25 -6 -3 5 1 10 9 10 9 0 16 -2 16 -4z
m58 -26 c-4 -33 -12 -35 -42 -14 -16 11 -17 16 -6 29 7 8 21 15 32 15 15 0 18
-6 16 -30z m634 -2 c-6 -38 -32 -37 -32 1 0 22 4 29 18 28 14 -1 17 -7 14 -29z
m48 -8 c0 -11 -4 -20 -10 -20 -5 0 -10 9 -10 20 0 11 5 20 10 20 6 0 10 -9 10
-20z m925 0 c11 -34 -3 -40 -101 -40 l-94 0 0 30 0 30 94 0 c86 0 95 -2 101
-20z m-1645 -22 c35 -25 38 -44 10 -53 -11 -3 -20 -12 -20 -20 0 -7 -7 -15
-15 -19 -8 -3 -15 -18 -15 -33 -1 -27 -1 -27 -15 -9 -8 11 -15 30 -15 43 0 13
-5 32 -12 42 -10 16 -7 23 18 45 16 14 30 26 32 26 2 0 16 -10 32 -22z m690
-27 c0 -31 -23 -121 -31 -121 -20 0 -27 125 -6 133 25 11 37 7 37 -12z m-510
-37 c0 -11 -8 -14 -32 -12 -46 4 -49 28 -4 28 26 0 36 -4 36 -16z m133 -86 c4
-56 5 -103 4 -104 -1 -1 -48 -4 -104 -7 l-103 -5 0 89 0 89 32 -2 c26 -2 35 2
43 20 8 19 17 22 66 22 l56 0 6 -102z m-226 -40 c-2 -24 -4 -5 -4 42 0 47 2
66 4 43 2 -24 2 -62 0 -85z m123 -198 c0 -16 -23 -22 -76 -18 -46 3 -47 4 -24
15 31 15 100 16 100 3z m171 -120 c26 -15 24 -30 -5 -30 -29 0 -46 19 -19 21
10 1 5 5 -12 9 -25 6 -26 8 -7 9 13 0 32 -4 43 -9z m110 -14 l29 -24 -31 -7
c-24 -5 -36 -2 -55 16 -13 12 -24 26 -24 31 0 17 54 7 81 -16z m-211 4 c-8 -5
-24 -10 -35 -10 -17 0 -17 2 -5 10 8 5 24 10 35 10 17 0 17 -2 5 -10z m-60 -9
c0 -5 -13 -11 -30 -13 -16 -3 -30 -1 -30 3 0 7 10 10 53 18 4 0 7 -3 7 -8z
m129 -25 l23 -25 -38 -10 c-22 -6 -78 -20 -126 -30 l-87 -19 -21 25 c-12 14
-19 28 -15 31 7 8 189 49 221 51 11 1 31 -10 43 -23z m-214 4 c-11 -5 -29 -9
-40 -9 l-20 0 20 9 c11 5 29 9 40 9 l20 0 -20 -9z m295 -16 c0 -2 -9 -4 -21
-4 -11 0 -18 4 -14 10 5 8 35 3 35 -6z"/>
<path d="M2837 3132 c-13 -14 -17 -48 -19 -185 -2 -129 0 -167 10 -167 9 0 12
39 12 164 0 124 3 166 13 175 10 8 70 -11 247 -79 129 -49 237 -95 242 -102 4
-7 8 -53 8 -103 0 -69 3 -86 12 -77 16 16 11 192 -5 208 -7 7 -82 37 -167 68
-85 32 -171 63 -190 71 -137 53 -140 53 -163 27z"/>
<path d="M3140 2990 c0 -5 -7 -10 -15 -10 -8 0 -19 -9 -25 -21 -9 -15 -18 -19
-34 -15 -25 6 -66 -31 -66 -59 0 -9 -6 -12 -15 -9 -12 5 -15 -3 -15 -39 0 -27
5 -47 13 -50 10 -4 10 -6 0 -6 -7 -1 -13 -8 -13 -17 0 -13 11 -15 66 -12 58 3
65 1 60 -14 -3 -15 3 -18 34 -18 37 0 37 -1 44 -46 10 -79 8 -94 -14 -94 -11
0 -20 5 -20 10 0 6 -20 10 -45 10 -36 0 -45 4 -45 17 0 13 3 14 12 5 17 -17
28 -15 28 7 0 11 6 21 13 24 24 9 1 15 -58 17 -80 2 -79 2 -65 -15 7 -8 9 -22
6 -31 -5 -13 -2 -15 20 -10 17 5 23 3 19 -4 -3 -5 -24 -10 -45 -10 -34 0 -41
-4 -46 -25 -3 -14 -10 -23 -14 -20 -5 3 -11 -1 -14 -7 -4 -7 -4 -3 -2 10 2 12
1 20 -4 17 -4 -3 -11 2 -14 11 -8 22 -8 26 3 20 5 -4 7 4 3 16 -5 21 -5 21
-14 -3 -5 -13 -6 -34 -3 -46 4 -18 1 -23 -15 -23 -17 0 -20 7 -20 50 0 28 -4
50 -10 50 -5 0 -10 -22 -10 -49 0 -51 -10 -61 -66 -61 -21 0 -41 -27 -29 -38
3 -3 5 -1 5 4 0 5 45 9 100 9 l100 0 -2 -25 c-2 -14 1 -42 5 -62 6 -28 12 -36
23 -31 9 3 20 0 25 -8 6 -11 9 -8 9 9 0 21 3 22 95 22 61 0 95 -4 95 -11 0 -6
14 -9 33 -8 17 1 59 -3 91 -10 57 -13 124 -7 178 14 12 5 18 0 21 -17 3 -14 5
-7 6 18 1 51 -9 61 -79 75 l-56 11 2 124 c2 100 -1 124 -12 124 -11 0 -14 -25
-14 -124 0 -120 -1 -124 -22 -130 -34 -9 -38 -8 -31 12 6 15 5 16 -12 2 -17
-14 -18 -13 -13 8 4 12 2 22 -3 22 -5 0 -9 19 -9 43 -1 55 -26 197 -38 209 -5
5 -34 12 -65 15 l-56 6 25 33 c14 18 23 38 19 44 -4 6 5 30 20 52 26 39 27 42
9 55 -21 16 -34 17 -34 3z m-70 -200 c0 -5 -5 -10 -11 -10 -5 0 -7 5 -4 10 3
6 8 10 11 10 2 0 4 -4 4 -10z m38 -229 c6 -1 12 -5 12 -11 0 -6 -33 -10 -80
-10 -44 0 -80 4 -80 9 0 16 47 20 148 12z m-88 -73 c16 -10 24 -10 40 0 34 21
60 15 60 -13 0 -26 0 -26 -77 -23 -72 3 -78 5 -81 26 -3 17 2 22 17 22 12 0
30 -6 41 -12z"/>
<path d="M2827 2762 c-12 -18 -11 -96 1 -100 8 -2 12 13 12 52 0 53 -3 65 -13
48z"/>
<path d="M2873 2720 c0 -25 2 -35 4 -22 2 12 2 32 0 45 -2 12 -4 2 -4 -23z"/>
<path d="M2978 2713 c5 -21 7 -23 10 -9 2 10 0 22 -6 28 -6 6 -7 0 -4 -19z"/>
<path d="M3035 2730 l-40 -7 43 -2 c23 0 42 4 42 9 0 6 -1 9 -2 9 -2 -1 -21
-5 -43 -9z"/>
<path d="M2778 2333 c6 -2 18 -2 25 0 6 3 1 5 -13 5 -14 0 -19 -2 -12 -5z"/>
<path d="M2868 2333 c6 -2 18 -2 25 0 6 3 1 5 -13 5 -14 0 -19 -2 -12 -5z"/>
<path d="M3250 2306 c0 -2 7 -7 16 -10 8 -3 12 -2 9 4 -6 10 -25 14 -25 6z"/>
<path d="M1977 3095 c-56 -14 -82 -36 -109 -90 -32 -61 -28 -136 8 -188 111
-157 334 -90 336 102 0 58 -19 97 -67 139 -31 28 -47 35 -105 46 -9 2 -37 -2
-63 -9z m134 -38 c18 -12 44 -38 57 -57 20 -29 23 -44 20 -93 -5 -64 -25 -98
-79 -135 -68 -47 -183 -11 -225 70 -22 43 -15 134 14 175 45 64 149 83 213 40z"/>
<path d="M1988 3016 c-16 -8 -34 -18 -40 -23 -7 -4 -19 -8 -27 -8 -20 0 -35
-57 -18 -70 6 -5 20 -26 30 -46 36 -70 113 -90 167 -41 61 54 47 158 -25 188
-43 17 -53 17 -87 0z m93 -29 c22 -17 39 -51 39 -80 0 -32 -51 -87 -80 -87
-35 0 -78 31 -90 64 -7 17 -16 39 -21 48 -13 25 -12 28 9 28 11 0 27 9 37 20
21 23 80 27 106 7z"/>
<path d="M1682 2659 c-135 -67 -132 -264 6 -330 130 -63 261 19 262 164 0 50
-24 110 -57 139 -54 49 -143 61 -211 27z m158 -21 c83 -42 112 -143 67 -229
-76 -144 -302 -80 -301 86 0 61 28 110 81 142 48 29 97 29 153 1z"/>
<path d="M1776 2615 c-3 -8 -12 -15 -21 -15 -29 0 -71 -28 -83 -55 -38 -83 13
-165 103 -165 54 0 105 53 105 108 0 24 -8 49 -20 65 -11 14 -17 32 -14 41 4
11 -2 19 -21 26 -35 13 -42 13 -49 -5z m41 -29 c-3 -8 3 -22 13 -31 39 -35 29
-123 -16 -143 -41 -19 -73 -14 -105 17 -20 20 -29 39 -29 61 0 40 47 90 84 90
14 0 26 5 26 10 0 6 7 10 16 10 10 0 14 -6 11 -14z"/>
<path d="M3170 2035 c0 -24 5 -35 15 -35 8 0 15 -4 15 -10 0 -5 3 -10 8 -10 4
0 7 15 7 33 l0 32 93 3 c50 1 92 -1 93 -5 0 -4 2 -17 4 -28 2 -11 -1 -23 -8
-27 -8 -5 -6 -8 6 -8 13 0 17 8 17 39 0 48 -8 51 -147 51 l-103 0 0 -35z"/>
<path d="M2719 1519 c-18 -57 -39 -109 -46 -114 -8 -6 -15 -22 -16 -37 l-2
-28 96 -3 c77 -3 106 -9 154 -31 32 -14 59 -25 61 -24 6 7 7 255 0 275 -9 27
-72 52 -151 60 l-63 6 -33 -104z m-49 -156 c-11 -17 -11 -17 -6 0 3 10 6 24 7
30 0 9 2 9 5 0 3 -7 0 -20 -6 -30z"/>
<path d="M3080 1601 c-14 -4 -40 -16 -58 -25 l-32 -17 -1 -112 c0 -61 -2 -124
-3 -139 -2 -31 -6 -30 101 -28 39 1 98 -4 131 -10 46 -9 64 -9 82 0 20 11 22
10 17 -4 -4 -10 -1 -16 8 -16 11 0 12 6 3 31 -7 19 -13 27 -18 19 -5 -8 -9 -4
-13 11 -6 21 -9 22 -95 16 -115 -8 -146 -20 -72 -27 52 -6 51 -6 -32 -10 -47
-3 -84 -2 -82 2 12 19 116 42 196 42 83 1 87 2 81 21 -3 11 -22 72 -43 135
l-36 115 -55 2 c-30 1 -65 -2 -79 -6z m185 -321 c25 -11 -1 -11 -35 0 -20 6
-21 8 -5 8 11 0 29 -3 40 -8z"/>
<path d="M2632 1393 c-34 -87 -63 -165 -64 -173 -3 -16 47 -17 230 -4 50 4
102 1 132 -6 38 -9 62 -9 98 -1 33 8 98 9 217 2 94 -4 171 -8 172 -7 1 1 -34
79 -79 174 -45 94 -84 170 -86 168 -4 -4 7 -28 92 -209 l55 -118 -177 7 c-195
8 -249 17 -166 28 29 4 87 2 132 -4 44 -7 87 -10 94 -8 17 6 -130 28 -187 28
-24 0 -55 -4 -70 -10 -20 -8 -35 -6 -65 10 -29 15 -62 20 -122 22 l-83 1 65 6
c81 7 54 18 -68 28 -81 6 -83 6 -89 -17 -6 -22 -7 -22 -13 -5 -6 16 -9 13 -19
-18 -7 -21 -11 -40 -9 -42 2 -2 40 2 83 10 86 15 218 18 250 6 39 -15 -45 -29
-214 -35 -154 -6 -163 -6 -156 11 4 10 24 63 45 118 21 55 48 121 59 148 11
26 17 47 12 47 -4 0 -36 -71 -69 -157z m95 -109 c-3 -3 -12 -4 -19 -1 -8 3 -5
6 6 6 11 1 17 -2 13 -5z m-72 -14 c3 -5 1 -10 -4 -10 -6 0 -11 5 -11 10 0 6 2
10 4 10 3 0 8 -4 11 -10z m298 -47 c-7 -2 -19 -2 -25 0 -7 3 -2 5 12 5 14 0
19 -2 13 -5z m80 0 c-7 -2 -21 -2 -30 0 -10 3 -4 5 12 5 17 0 24 -2 18 -5z"/>
<path d="M2818 1253 c23 -2 59 -2 80 0 20 2 1 4 -43 4 -44 0 -61 -2 -37 -4z"/>
<path d="M2733 1243 c9 -2 23 -2 30 0 6 3 -1 5 -18 5 -16 0 -22 -2 -12 -5z"/>
<path d="M1708 1879 c-27 -15 -24 -68 5 -78 32 -12 57 4 57 37 0 45 -26 62
-62 41z m47 -34 c0 -25 -4 -30 -25 -30 -19 0 -26 6 -28 24 -4 25 13 43 38 38
9 -1 15 -13 15 -32z"/>
<path d="M1714 1856 c-7 -19 3 -36 22 -36 10 0 14 8 12 22 -4 26 -26 36 -34
14z m26 -16 c0 -5 -4 -10 -10 -10 -5 0 -10 5 -10 10 0 6 5 10 10 10 6 0 10 -4
10 -10z"/>
<path d="M4730 3243 c-63 -19 -171 -50 -240 -70 -69 -20 -129 -39 -133 -43 -8
-7 10 -87 22 -102 6 -7 504 132 516 144 3 3 0 28 -6 57 -8 37 -15 51 -27 50
-9 -1 -69 -17 -132 -36z"/>
<path d="M131 3256 c-20 -24 -51 -128 -51 -170 0 -35 5 -44 28 -58 30 -18 138
-48 171 -48 12 0 48 24 80 54 l59 55 50 -14 c58 -15 72 -22 72 -37 0 -10 -18
-9 -106 8 -28 5 -31 3 -42 -34 -22 -71 -20 -73 112 -102 39 -9 53 -8 71 4 27
18 65 122 65 178 0 47 -17 59 -120 87 -115 32 -132 30 -195 -30 l-55 -52 -45
13 c-28 8 -45 18 -45 28 0 15 13 14 82 -3 22 -6 26 -2 40 48 l15 55 -57 16
c-69 20 -114 20 -129 2z"/>
<path d="M4715 2995 c-330 -67 -325 -64 -291 -206 22 -92 29 -99 91 -99 57 0
152 17 159 28 2 4 -1 31 -6 60 -8 36 -15 51 -24 48 -7 -3 -41 -8 -75 -12 -50
-6 -61 -4 -57 7 3 8 37 20 84 30 172 35 274 52 280 46 12 -11 -6 -25 -49 -35
l-44 -11 10 -56 c10 -55 11 -56 41 -50 70 13 116 28 127 41 17 21 6 143 -17
190 -18 36 -22 39 -64 41 -25 1 -99 -9 -165 -22z"/>
<path d="M20 2792 c0 -60 -4 -58 138 -68 56 -4 101 -8 99 -11 -3 -2 -57 -10
-121 -17 -65 -8 -119 -15 -120 -17 -2 -2 -7 -28 -11 -56 -7 -51 -6 -53 17 -53
12 0 120 -9 238 -20 118 -11 232 -20 253 -20 l37 0 0 49 0 49 -110 7 c-60 4
-110 11 -110 16 0 5 15 9 33 9 17 0 69 5 115 12 75 10 82 13 82 33 0 12 3 36
6 52 6 30 6 30 -48 37 -29 3 -134 13 -233 21 -99 8 -199 18 -222 21 l-43 6 0
-50z"/>
<path d="M4489 2569 c-15 -5 -30 -20 -33 -32 -9 -33 -7 -180 2 -195 16 -25 80
-32 288 -32 161 0 215 3 229 14 14 10 19 30 23 94 5 87 -8 138 -37 146 -37 10
-447 15 -472 5z m411 -119 c10 -6 12 -12 4 -20 -16 -16 -364 -1 -364 17 0 10
35 13 173 13 94 0 179 -5 187 -10z"/>
<path d="M260 2413 c-113 -7 -215 -16 -227 -18 -21 -5 -23 -11 -23 -61 l0 -56
113 7 c61 4 159 11 217 16 58 5 131 9 163 9 l57 0 0 38 c0 20 -3 47 -6 60 -7
26 7 26 -294 5z"/>
<path d="M448 1594 c-16 -8 -28 -21 -28 -30 0 -26 50 -114 65 -114 27 0 65 23
65 39 -1 21 -52 114 -65 117 -5 2 -22 -4 -37 -12z m49 -59 c12 -26 14 -38 6
-46 -8 -8 -17 0 -32 29 -25 49 -25 52 -6 52 9 0 23 -16 32 -35z"/>
<path d="M4475 1440 c-14 -27 -25 -56 -25 -64 0 -17 37 -46 60 -46 14 0 70 96
70 120 0 10 -52 40 -69 40 -6 0 -22 -22 -36 -50z m48 -35 c-9 -19 -20 -32 -25
-29 -12 8 -10 22 8 49 23 36 36 20 17 -20z"/>
<path d="M3751 1011 l-35 -29 76 -93 c42 -52 75 -95 73 -97 -2 -2 -44 31 -94
73 -98 82 -104 84 -155 39 -29 -25 -29 -26 -10 -50 89 -115 320 -403 324 -403
3 0 22 14 42 32 l38 32 -77 94 c-84 104 -82 105 27 17 41 -33 80 -63 86 -68 7
-5 27 4 53 26 l40 34 -167 208 c-92 114 -172 209 -177 210 -6 2 -26 -9 -44
-25z"/>
<path d="M1051 989 l-23 -31 20 -21 20 -22 -139 -174 c-76 -95 -139 -177 -139
-181 0 -7 75 -70 83 -70 2 0 47 53 98 117 194 243 187 235 213 218 22 -15 25
-14 50 15 14 18 26 35 26 38 -1 10 -166 142 -177 142 -5 0 -20 -14 -32 -31z"/>
<path d="M1250 580 c-66 -132 -120 -242 -120 -245 0 -3 36 -23 79 -45 l80 -40
20 34 c27 43 27 43 -9 61 l-30 16 36 72 c20 39 38 73 39 75 2 2 15 -4 29 -14
15 -9 28 -15 30 -13 43 55 46 86 11 95 -31 8 -31 12 -3 69 16 33 26 44 38 39
41 -17 55 -15 68 12 6 16 12 33 12 39 0 12 -130 85 -150 85 -5 0 -64 -108
-130 -240z"/>
<path d="M3408 789 c-32 -16 -58 -31 -58 -34 0 -6 114 -329 152 -432 17 -46
35 -83 40 -83 5 0 27 9 48 20 l40 20 -21 52 c-16 41 -17 53 -7 59 24 15 33 9
58 -35 l24 -44 40 21 c23 11 44 20 49 19 18 -5 1 25 -90 160 -168 249 -205
303 -212 305 -3 1 -32 -11 -63 -28z m136 -240 c25 -43 34 -65 27 -72 -14 -14
-16 -12 -49 71 -35 85 -28 85 22 1z"/>
<path d="M1689 653 c-53 -139 -167 -489 -161 -494 4 -3 28 -13 54 -22 l46 -15
15 41 c9 23 28 77 43 120 16 45 32 77 40 77 8 0 14 -4 14 -8 0 -8 -61 -190
-74 -223 -6 -12 3 -20 34 -33 74 -29 67 -39 159 232 46 136 86 252 88 257 4
13 -98 48 -108 37 -4 -4 -19 -45 -35 -92 -33 -101 -28 -92 -47 -85 -13 6 -11
18 14 93 16 47 29 91 29 98 0 9 -77 44 -97 44 -2 0 -8 -12 -14 -27z"/>
<path d="M3018 637 c-80 -28 -108 -50 -108 -88 0 -27 117 -365 146 -420 22
-43 43 -50 102 -35 28 8 70 25 94 38 55 30 60 63 22 167 -15 42 -28 77 -29 78
-4 6 -100 -36 -103 -45 -1 -5 6 -33 18 -61 24 -63 25 -73 3 -69 -9 2 -23 24
-34 53 -9 28 -35 101 -58 164 -22 63 -38 118 -35 122 11 18 23 7 40 -36 13
-35 21 -44 33 -39 9 3 30 11 46 16 17 6 34 14 38 18 10 9 -30 113 -55 139 -24
26 -37 26 -120 -2z"/>
<path d="M2135 558 c-5 -19 -35 -406 -35 -458 0 -25 4 -50 8 -57 14 -22 63
-33 142 -33 72 0 81 2 94 23 10 15 20 83 31 207 8 102 18 212 21 246 l6 61
-47 6 c-77 11 -75 12 -76 -45 -1 -108 -34 -401 -45 -405 -21 -7 -21 19 -1 230
10 114 16 214 13 222 -7 19 -105 21 -111 3z"/>
<path d="M2624 563 l-52 -4 -6 -107 c-3 -59 -9 -185 -12 -280 l-6 -172 33 0
c19 0 45 3 58 7 21 5 22 10 17 44 -7 46 1 69 24 69 19 0 24 -10 34 -72 l7 -37
52 6 c29 3 53 6 54 7 1 1 -22 111 -52 246 -29 135 -55 256 -57 270 -3 27 -10
29 -94 23z m53 -291 c9 -57 8 -62 -9 -62 -16 0 -18 9 -17 83 0 91 11 83 26
-21z"/>
</g>
</svg>
