<?xml version="1.0" standalone="no"?>
<!DOCTYPE svg PUBLIC "-//W3C//DTD SVG 20010904//EN"
 "http://www.w3.org/TR/2001/REC-SVG-20010904/DTD/svg10.dtd">
<svg version="1.0" xmlns="http://www.w3.org/2000/svg"
 width="620.000000pt" height="620.000000pt" viewBox="0 0 620.000000 620.000000"
 preserveAspectRatio="xMidYMid meet">
<metadata>
Created by potrace 1.16, written by Peter Selinger 2001-2019
</metadata>
<g transform="translate(0.000000,620.000000) scale(0.100000,-0.100000)"
fill="#000000" stroke="none">
<path d="M0 3100 l0 -3100 3100 0 3100 0 0 3100 0 3100 -3100 0 -3100 0 0
-3100z m2637 2754 l61 -7 -28 -59 -29 -60 -134 -2 -135 -1 -25 62 c-13 35 -22
65 -19 68 7 7 237 6 309 -1z m-331 -59 c32 -73 31 -82 -11 -89 -19 -4 -47 -17
-62 -30 l-28 -24 -62 31 c-70 36 -74 46 -43 108 25 48 46 58 123 58 l58 1 25
-55z m551 39 c21 -6 46 -45 58 -94 5 -22 1 -28 -27 -42 -18 -10 -45 -25 -59
-34 -26 -17 -28 -16 -54 4 -15 12 -42 24 -61 28 -19 3 -34 11 -34 16 0 6 10
37 23 69 l22 59 55 0 c30 0 65 -3 77 -6z m-737 -190 c35 -20 59 -41 56 -47
-37 -85 -56 -136 -56 -157 -1 -57 -10 -68 -63 -80 -29 -7 -60 -14 -69 -17 -15
-4 -18 2 -18 37 0 94 59 300 86 300 1 0 30 -16 64 -36z m856 -38 c33 -95 60
-251 46 -260 -4 -2 -37 3 -74 11 l-67 15 -6 46 c-3 26 -17 76 -31 112 -13 36
-24 70 -24 76 0 6 18 19 40 29 22 10 45 24 52 32 22 27 41 8 64 -61z m903
-138 c71 -44 72 -46 53 -111 -15 -55 -17 -58 -41 -52 -14 4 -47 9 -73 12 -44
5 -48 7 -59 41 -6 21 -17 47 -25 58 -11 19 -10 24 10 41 45 39 83 42 135 11z
m-170 -99 c11 -29 21 -58 21 -65 0 -8 -19 -23 -41 -35 -23 -11 -63 -41 -89
-65 l-48 -45 -56 28 c-31 15 -56 33 -56 39 0 27 203 194 235 194 7 0 22 -23
34 -51z m335 -5 c63 -45 188 -145 198 -159 12 -16 10 -19 -45 -48 l-53 -28
-48 46 c-26 24 -70 57 -97 71 -28 16 -49 34 -49 44 0 21 30 110 37 110 3 0 29
-16 57 -36z m257 -215 c89 -76 91 -81 64 -145 -12 -30 -19 -35 -37 -30 -13 3
-40 6 -60 6 -34 0 -39 4 -53 37 -9 21 -25 47 -36 59 l-20 22 58 36 c32 19 58
36 59 36 1 0 12 -9 25 -21z m43 -220 c16 -14 -64 -218 -108 -274 -15 -19 -17
-19 -62 29 l-46 48 30 57 c17 31 34 74 38 96 9 42 11 52 13 59 2 7 126 -6 135
-15z m-2730 -31 c-14 -6 -11 -7 11 -3 17 2 84 -2 150 -10 66 -8 210 -25 320
-36 110 -11 204 -23 209 -27 6 -3 19 -6 30 -7 12 -1 39 -5 61 -10 32 -7 36 -9
20 -15 -11 -4 -31 -3 -45 2 -14 6 -43 11 -65 12 -107 6 -112 7 -85 16 16 5
-10 8 -77 9 -56 1 -104 5 -108 10 -3 6 -13 10 -23 9 -9 0 -67 4 -128 8 -83 5
-113 4 -119 -5 -4 -7 1 -18 11 -26 11 -8 15 -15 10 -15 -4 0 -21 11 -38 25
-16 14 -37 25 -47 25 -9 0 -21 4 -27 10 -17 17 -82 0 -88 -24 -9 -32 -7 -86 3
-86 12 0 21 52 14 79 -5 19 -1 21 33 21 35 0 36 -1 19 -14 -11 -8 -26 -11 -34
-8 -9 3 -12 1 -7 -6 4 -7 3 -27 -2 -45 -8 -30 -6 -36 19 -60 16 -15 36 -27 45
-27 8 0 12 -4 9 -10 -10 -16 -18 -12 -54 21 -18 16 -36 28 -39 25 -3 -3 8 -18
24 -33 26 -24 27 -26 6 -21 -12 3 -22 2 -22 -3 0 -5 33 -9 74 -9 40 0 95 -3
121 -7 28 -3 46 -2 43 3 -8 11 94 5 106 -6 5 -5 -15 -7 -45 -6 -50 3 -51 3
-14 -4 42 -9 -36 -7 -206 6 l-87 7 -11 37 c-14 48 -14 132 0 180 9 31 15 37
32 32 20 -5 20 -6 1 -14z m232 -363 c313 -22 566 -53 583 -71 3 -3 -7 -4 -24
-1 -56 11 -140 21 -150 18 -5 -1 -46 3 -90 10 -91 14 -126 17 -280 23 -61 3
-115 5 -120 6 -6 1 -17 2 -25 1 -33 -4 29 -19 106 -26 43 -3 132 -13 197 -22
65 -8 138 -13 162 -11 24 1 43 -1 42 -6 -1 -5 36 -19 82 -32 46 -13 86 -26 90
-30 8 -8 -51 4 -104 22 -38 12 -287 50 -385 59 -25 2 -106 7 -180 10 -74 4
-157 8 -185 10 -27 2 -56 4 -62 5 -7 0 -13 5 -13 11 0 6 7 9 15 5 18 -7 20 5
3 22 -17 17 76 16 338 -3z m1643 -175 c12 0 58 -108 77 -181 13 -51 15 -89 10
-189 -3 -69 -10 -141 -16 -160 -6 -24 -7 7 -4 100 3 83 2 130 -4 122 -6 -9
-13 6 -22 50 -7 35 -30 119 -53 188 -22 69 -42 132 -45 140 -2 8 8 -4 23 -27
14 -24 30 -43 34 -43z m-1609 50 c0 -6 23 -7 58 -4 62 7 181 -6 320 -33 75
-15 81 -18 68 -32 -8 -9 -19 -28 -25 -41 -7 -19 -10 -20 -10 -7 -1 10 4 27 9
37 7 13 7 21 0 25 -12 7 -21 -14 -24 -50 0 -14 -7 -25 -15 -25 -8 0 -11 6 -7
16 15 39 18 64 7 64 -6 0 -11 -9 -11 -19 0 -11 -4 -22 -10 -26 -5 -3 -6 -13
-3 -21 5 -12 1 -15 -13 -11 -10 3 -63 14 -116 23 -54 10 -98 22 -98 26 0 11 0
11 80 -8 38 -8 80 -14 92 -11 17 3 15 5 -9 6 -40 1 -54 21 -16 22 27 1 27 1
-5 9 -51 12 -50 20 4 22 98 3 -84 15 -261 18 -93 1 -181 6 -195 11 -22 8 -21
8 10 5 19 -2 58 0 85 4 75 11 85 11 85 0z m2166 -170 c37 -39 144 -200 144
-215 0 -3 20 -41 44 -84 27 -47 65 -141 96 -237 28 -88 55 -168 60 -179 5 -11
18 -76 29 -145 30 -178 29 -445 -1 -619 -12 -69 -26 -130 -31 -136 -6 -7 -7
-1 -3 15 20 75 46 328 46 444 0 204 -45 463 -88 506 -13 13 -14 13 -9 -7 3
-13 1 -26 -4 -29 -5 -3 -9 -18 -9 -34 0 -16 -3 -31 -7 -33 -5 -3 -8 36 -9 87
-3 238 -157 515 -372 665 -34 24 -62 45 -62 47 0 17 130 -77 188 -134 15 -15
35 -33 44 -41 16 -12 17 -11 7 18 -6 17 -15 31 -20 31 -5 0 -9 9 -9 19 0 11
-8 23 -17 26 -20 7 -111 116 -119 142 -3 10 10 0 28 -22 18 -21 52 -60 74 -85z
m-2406 94 c363 -49 455 -67 799 -158 25 -7 46 -16 48 -21 6 -18 -102 -7 -230
24 -129 32 -559 106 -689 119 -63 6 -71 9 -74 30 -5 27 -4 27 146 6z m1387
-50 c161 -72 275 -130 370 -186 85 -51 101 -64 89 -74 -12 -8 -12 -14 -4 -22
6 -6 8 -15 5 -19 -4 -4 -36 21 -70 55 -64 63 -216 162 -249 162 -12 0 -18 -8
-19 -22 -1 -18 -3 -15 -10 10 -7 24 -19 37 -44 48 -41 17 -56 18 -52 3 6 -27
-22 -17 -41 16 -22 35 -36 43 -47 25 -3 -5 -10 -10 -15 -10 -6 0 -2 9 7 20 10
11 19 20 20 20 1 0 28 -12 60 -26z m1798 -4 c3 -5 1 -37 -6 -70 l-12 -61 -71
3 c-39 1 -91 -1 -117 -6 -41 -7 -46 -6 -57 16 -7 12 -21 37 -31 53 -11 17 -20
33 -20 36 -1 6 48 21 104 33 42 8 204 6 210 -4z m165 -25 c11 -10 29 -43 40
-74 20 -51 20 -56 4 -68 -9 -6 -31 -26 -50 -42 l-33 -31 -28 40 c-15 21 -39
44 -52 50 -18 8 -22 16 -17 33 4 12 9 43 12 68 l6 45 50 -2 c30 -1 57 -9 68
-19z m-1202 -4 c29 -12 32 -17 32 -54 0 -48 -29 -157 -41 -157 -5 0 -9 8 -9
17 0 22 -29 53 -50 53 -15 0 -15 7 4 80 12 44 23 79 26 77 3 -2 20 -9 38 -16z
m-1928 -46 c91 -13 201 -31 245 -40 44 -8 81 -15 83 -15 1 0 -4 -13 -13 -30
-8 -16 -15 -36 -15 -45 0 -17 -55 -22 -65 -5 -4 6 -10 8 -16 5 -12 -8 -79 5
-79 15 0 4 18 4 40 0 22 -4 40 -3 40 1 0 14 27 10 40 -6 7 -8 17 -15 22 -15 6
0 8 7 4 15 -3 8 -1 15 4 15 6 0 10 12 10 28 0 18 -3 23 -9 14 -4 -8 -11 -13
-15 -13 -23 3 -30 0 -16 -9 12 -8 11 -10 -7 -10 -12 0 -25 5 -28 11 -4 6 -20
8 -38 4 l-32 -6 25 15 c14 8 36 12 50 9 14 -3 22 -3 19 0 -6 7 -136 32 -214
41 -35 4 -59 1 -79 -9 -32 -17 -76 -20 -76 -5 0 6 15 10 33 11 17 0 41 5 52
10 15 7 10 8 -20 5 -22 -2 -60 -1 -85 4 -30 5 -37 8 -20 10 24 2 24 3 -5 10
-59 15 3 10 165 -15z m2092 -65 c64 -46 63 -39 9 -137 l-35 -62 -33 30 c-19
16 -40 29 -48 29 -19 0 -19 5 5 73 11 31 20 68 20 82 0 34 16 32 82 -15z
m-2367 -19 c22 -5 135 -27 250 -50 116 -23 244 -50 285 -62 41 -11 110 -29
154 -40 60 -15 85 -26 107 -50 33 -36 36 -43 12 -31 -16 9 -105 30 -373 92
-47 10 -155 31 -240 46 -256 43 -280 48 -280 56 0 9 73 3 92 -8 10 -6 10 -4
-1 9 -7 9 -24 17 -38 17 -13 0 -31 7 -39 15 -14 13 -13 15 8 15 13 -1 41 -5
63 -9z m835 -17 c0 -8 4 -14 8 -14 4 0 14 -32 21 -72 7 -40 17 -79 22 -87 4
-9 26 -55 49 -102 67 -140 75 -144 226 -113 59 12 113 15 214 12 134 -5 136
-5 325 -68 114 -39 199 -73 213 -86 19 -18 28 -20 60 -13 40 9 72 40 72 70 0
10 9 33 20 51 22 37 18 48 -24 66 -54 24 -20 22 65 -4 145 -45 289 -132 340
-207 27 -39 33 -58 33 -100 0 -52 -21 -144 -30 -134 -3 3 -1 22 5 44 20 71 14
126 -18 171 -38 52 -47 57 -56 29 -6 -21 -7 -21 -15 5 -23 76 -113 136 -218
145 -54 5 -61 4 -72 -17 -6 -12 -14 -34 -16 -48 -12 -76 -20 -82 -121 -96 -40
-6 -43 -5 -40 16 2 20 -7 26 -63 45 -116 38 -394 82 -528 83 -83 0 -259 -22
-303 -38 -18 -7 -26 -5 -34 9 -5 9 -31 48 -56 86 -42 60 -84 143 -74 143 2 0
33 -44 69 -99 37 -54 75 -101 85 -104 14 -3 18 -1 14 9 -3 8 -12 14 -20 14 -8
0 -11 5 -8 11 4 6 -2 13 -13 16 -13 3 -22 16 -26 38 -4 18 -13 38 -21 45 -8 7
-15 18 -15 24 0 14 -54 154 -63 163 -4 3 -7 1 -7 -5 0 -7 -4 -12 -10 -12 -6 0
-10 32 -10 76 0 47 4 73 10 69 6 -3 10 -13 10 -21z m94 11 c-6 -15 9 -43 44
-87 83 -102 125 -131 234 -159 87 -23 100 -23 166 -4 49 15 102 57 102 80 0 6
9 18 20 28 11 9 20 24 20 32 0 8 5 15 10 15 6 0 10 -6 10 -13 0 -19 -37 -117
-51 -133 -15 -19 -30 -18 -23 1 5 12 2 13 -12 8 -11 -4 -25 -13 -33 -21 -12
-11 -12 -15 -1 -22 10 -6 8 -9 -6 -13 -10 -2 3 -5 29 -6 30 -1 46 3 42 9 -3 6
2 10 12 11 63 3 276 41 338 60 68 21 94 24 79 9 -20 -20 -181 -72 -299 -96
-99 -20 -180 -17 -330 10 -138 25 -217 51 -270 87 -37 26 -115 146 -114 175 0
18 1 18 9 -1 8 -18 9 -18 9 6 1 14 4 29 8 32 10 11 13 8 7 -8z m2574 -72 c23
-55 87 -272 81 -276 -2 -2 -32 -1 -65 1 l-61 4 -6 47 c-3 26 -20 81 -38 121
l-33 73 45 38 c24 21 47 39 50 39 4 0 16 -21 27 -47z m-3279 -93 c11 -5 28
-10 38 -10 10 0 96 -16 191 -36 165 -36 171 -38 155 -56 -20 -22 -41 -24 -22
-2 11 14 9 15 -19 11 -20 -3 -35 0 -43 9 -18 22 -29 16 -29 -16 0 -20 4 -28
13 -24 8 3 20 -2 27 -11 15 -18 36 -20 43 -2 4 7 6 6 6 -5 1 -14 -9 -16 -76
-12 -59 3 -71 2 -49 -6 16 -5 33 -7 38 -4 14 9 78 -6 78 -17 0 -6 -10 -8 -22
-4 -13 4 -31 9 -40 11 -10 3 -18 1 -18 -4 0 -6 18 -13 40 -17 22 -4 40 -11 40
-15 0 -14 -144 30 -153 46 -4 8 -13 14 -20 14 -7 0 -6 -4 3 -11 19 -12 -41 -3
-103 17 l-42 13 40 1 c32 1 36 3 20 10 -17 7 -17 9 -2 9 9 1 17 6 17 11 0 6
-21 11 -47 11 -27 -1 -77 1 -113 4 -36 2 -75 4 -88 5 -21 0 -22 1 -8 16 9 8
16 23 15 32 0 12 -3 11 -9 -5 -9 -22 -55 -42 -67 -29 -4 3 3 6 14 6 13 0 29
13 42 33 11 17 21 28 21 24 0 -5 7 -1 16 8 18 18 76 15 113 -5z m2331 -35 c0
-8 4 -15 8 -15 8 0 52 -84 52 -99 0 -9 -102 -91 -112 -91 -4 0 -4 18 -1 39 5
33 1 44 -22 67 l-27 27 43 43 c46 47 59 53 59 29z m-2415 -122 c300 -101 638
-175 758 -167 l52 4 -35 -16 c-19 -9 -43 -23 -53 -32 -12 -10 -21 -12 -25 -6
-4 6 -38 15 -77 22 -260 43 -441 81 -580 124 -76 23 -81 25 -73 33 3 3 16 2
29 -3 45 -17 79 -22 79 -13 0 9 -109 48 -123 43 -5 -1 -6 2 -3 6 3 5 -30 20
-74 32 -44 13 -80 26 -80 30 0 9 54 -7 205 -57z m3431 -59 c15 -4 26 -21 38
-56 9 -28 16 -56 16 -63 0 -15 -27 -45 -59 -68 -23 -15 -26 -15 -72 21 -37 28
-48 42 -44 57 3 11 5 41 5 68 l0 47 48 0 c26 0 57 -3 68 -6z m-3320 -106 c3
-10 13 -18 22 -18 16 1 16 2 0 14 -10 7 -18 16 -18 20 0 9 43 -3 50 -14 3 -4
29 -10 59 -13 30 -4 59 -11 64 -16 5 -5 16 -7 23 -4 16 6 19 -13 4 -22 -6 -4
-8 -11 -5 -16 4 -5 1 -9 -5 -9 -7 0 -14 8 -17 18 -4 19 -69 49 -80 38 -4 -3 9
-11 28 -18 34 -12 34 -12 9 -19 -14 -4 -32 -7 -40 -8 -12 -1 -12 1 -1 8 10 7
8 12 -10 25 -28 20 -35 20 -42 3 -4 -10 2 -13 19 -9 14 2 24 0 24 -7 0 -6 -6
-11 -12 -11 -9 0 -8 -4 2 -10 12 -8 11 -10 -7 -10 -13 0 -23 -4 -23 -10 0 -6
-23 -7 -60 -3 -39 4 -60 2 -60 -5 0 -17 150 -14 157 4 3 9 20 14 50 14 27 0
42 -4 38 -10 -3 -6 4 -10 16 -10 12 0 20 -2 17 -5 -3 -3 -79 -10 -169 -15 -90
-5 -196 -12 -235 -16 -61 -5 -72 -4 -78 11 -8 21 8 53 18 36 4 -6 26 -12 49
-13 l42 -1 -50 -7 -50 -7 45 -1 c25 0 65 3 90 7 l45 8 -37 2 c-39 1 -49 14
-24 28 19 11 31 59 17 67 -16 10 -13 26 4 26 11 0 15 -12 15 -45 0 -47 9 -56
30 -30 10 12 10 18 0 30 -6 8 -9 18 -6 24 3 5 0 12 -6 14 -8 3 -6 6 5 6 9 1
17 5 17 10 0 15 70 -14 76 -31z m1968 11 c98 -36 120 -93 65 -169 -29 -40 -33
-42 -72 -37 -22 3 -49 1 -59 -4 -14 -7 -16 -6 -12 6 5 11 -1 15 -20 15 -14 0
-26 -4 -26 -8 0 -18 39 -43 71 -45 37 -3 41 -10 27 -47 -6 -14 -7 -59 -3 -102
4 -46 3 -78 -3 -78 -14 0 -152 -113 -189 -154 -57 -63 -34 -136 42 -136 32 0
35 -3 34 -27 -1 -47 -24 -108 -39 -108 -9 0 -13 7 -11 15 2 8 6 31 9 50 5 43
-8 34 -17 -12 -6 -25 -12 -32 -27 -30 -26 5 -27 6 -16 45 12 41 6 53 -30 62
-34 9 -48 26 -58 68 l-8 32 -1 -39 c-1 -45 21 -76 54 -76 30 0 34 -7 26 -38
-10 -35 -37 -36 -33 -2 l2 25 -13 -24 c-8 -14 -17 -19 -21 -13 -3 6 -26 20
-51 32 -25 12 -45 25 -45 29 0 4 9 16 20 26 11 10 20 23 20 29 0 5 -15 -4 -32
-21 -30 -29 -35 -31 -53 -17 -12 9 -30 13 -45 9 -14 -3 -50 -8 -82 -11 -55 -4
-57 -4 -87 33 -34 41 -40 73 -15 73 9 0 31 7 49 16 l34 16 31 -36 c55 -62 138
-58 166 9 28 67 -15 130 -89 130 -39 0 -42 2 -53 40 -7 22 -13 72 -13 111 l-1
72 38 15 c21 9 55 19 75 22 20 4 37 12 37 19 0 28 155 66 270 65 41 0 101 -6
133 -13 31 -8 57 -11 57 -6 0 10 -67 26 -142 35 -62 8 -209 -9 -271 -31 -30
-11 -38 -11 -35 -1 8 22 56 38 150 49 110 14 138 33 138 96 0 67 30 77 124 41z
m1245 -91 c22 -21 41 -44 41 -52 0 -18 -91 -86 -175 -130 -75 -40 -95 -44 -95
-18 0 9 -3 40 -6 68 l-7 52 37 12 c20 6 62 34 93 61 31 27 60 48 64 47 3 -2
25 -20 48 -40z m-2660 -14 c-8 -9 -31 -27 -51 -40 -21 -14 -38 -28 -38 -32 0
-17 59 -32 129 -33 42 0 85 -4 96 -8 11 -5 -119 -6 -290 -3 -238 3 -355 1
-505 -12 -107 -9 -206 -19 -220 -22 -21 -4 -26 -1 -27 16 -1 11 3 18 8 14 5
-3 15 -1 22 4 16 13 240 32 371 32 56 0 164 3 240 7 l136 6 68 43 c74 49 81
51 61 28z m303 -28 c52 -13 115 -34 139 -46 40 -21 56 -32 110 -82 10 -10 21
-18 23 -18 2 0 29 16 61 35 70 42 163 78 270 104 116 28 158 34 150 22 -3 -6
-12 -11 -18 -11 -14 0 -87 -68 -87 -81 0 -5 -11 -9 -24 -9 -14 0 -28 -4 -31
-10 -3 -5 -15 -10 -25 -10 -33 0 -89 -59 -121 -129 -16 -36 -36 -77 -43 -91
-21 -39 -44 -120 -51 -176 -7 -58 19 -153 61 -217 30 -46 28 -71 -6 -75 -26
-3 -80 38 -162 122 -23 24 -44 36 -53 32 -16 -6 -21 9 -7 18 5 3 7 20 4 38
l-4 33 29 -45 c40 -61 130 -158 153 -165 40 -13 38 7 -5 97 -39 79 -45 100
-45 154 0 42 4 66 14 71 7 4 21 33 31 63 10 30 21 57 24 60 4 3 15 23 25 45
37 85 52 108 90 141 21 18 55 39 75 45 32 11 71 40 71 54 0 23 -181 -25 -270
-73 -65 -36 -81 -52 -74 -76 5 -17 4 -19 -7 -8 -7 6 -22 12 -33 11 -20 0 -20
-1 -2 -8 19 -7 19 -8 -2 -13 -14 -4 -22 -14 -22 -28 0 -18 4 -21 24 -18 32 6
43 -1 51 -35 6 -22 4 -26 -9 -21 -9 4 -16 1 -16 -6 0 -7 -7 -10 -16 -6 -9 4
-25 4 -35 1 -17 -6 -17 -8 -4 -21 8 -9 13 -20 9 -25 -3 -5 6 -13 20 -19 16 -6
24 -15 20 -24 -3 -8 0 -17 6 -21 7 -4 -7 -25 -37 -56 -46 -47 -81 -64 -70 -35
4 10 -1 13 -16 10 -12 -2 -17 -2 -10 2 8 4 9 13 3 30 -8 19 -6 24 6 24 11 0
14 5 10 16 -6 14 -4 15 9 4 11 -10 13 -15 4 -20 -7 -5 -8 -10 -1 -14 11 -7 62
9 62 20 0 3 -7 4 -15 0 -10 -4 -14 1 -12 17 2 17 -3 22 -22 21 -13 0 -32 7
-42 17 -20 20 -8 36 13 17 7 -7 22 -13 33 -13 11 1 24 -9 30 -21 8 -18 12 -19
23 -8 10 12 10 14 -2 14 -8 0 -17 13 -21 30 -4 17 -11 30 -16 30 -20 0 -7 30
16 36 14 3 25 12 25 20 0 8 7 14 15 14 8 0 15 4 15 8 0 4 -12 8 -27 7 -24 0
-28 4 -30 30 0 17 -2 36 -2 43 -2 20 -27 14 -44 -10 -13 -19 -16 -20 -16 -5
-1 9 -9 18 -18 18 -14 1 -15 2 -2 6 9 2 15 16 16 38 l1 35 -25 -19 c-29 -24
-51 -18 -59 15 -8 31 -20 31 -28 -1 -8 -30 -39 -33 -58 -6 -8 11 -29 24 -48
29 -27 8 -30 10 -12 11 29 1 54 25 46 44 -7 19 -35 26 -109 28 -93 2 -125 17
-39 18 46 1 106 -8 166 -23z m-101 -133 c0 -25 1 -26 9 -8 8 17 9 16 9 -9 1
-24 -2 -28 -21 -23 -27 8 -48 -9 -47 -37 1 -19 2 -19 8 3 4 14 13 27 21 29 13
5 13 3 1 -11 -7 -9 -11 -26 -8 -37 3 -13 1 -18 -6 -14 -7 3 -3 -2 7 -10 19
-15 18 -16 -8 -37 -17 -13 -26 -29 -24 -42 5 -34 23 -30 23 5 0 26 5 34 21 36
11 2 28 -6 39 -18 16 -18 16 -20 2 -20 -10 0 -17 7 -17 15 0 8 -9 15 -20 15
-15 0 -20 -7 -20 -26 0 -23 3 -26 25 -21 14 2 23 2 21 -1 -3 -2 -1 -13 4 -23
7 -11 6 -26 0 -41 -10 -22 -10 -22 -7 4 2 15 0 25 -4 22 -5 -3 -9 -12 -9 -20
0 -12 -4 -12 -20 -4 -10 6 -25 9 -32 8 -8 -2 -20 24 -32 74 -20 75 -20 77 -1
118 10 23 29 50 42 60 13 10 23 23 23 29 0 25 20 9 21 -16z m-341 -39 c-6 -14
-10 -45 -10 -70 l0 -44 -222 1 c-264 1 -311 6 -317 34 -3 19 -3 19 16 3 24
-22 40 -24 23 -3 -7 9 -10 19 -6 22 4 4 11 2 15 -6 5 -8 8 -2 7 17 -1 17 -4
28 -8 25 -5 -2 -8 1 -8 6 0 6 -5 11 -10 11 -6 0 -8 -11 -4 -25 4 -15 2 -25 -5
-25 -10 0 -13 12 -10 37 0 4 -8 10 -18 14 -10 4 27 8 82 10 123 2 467 15 477
17 4 1 3 -10 -2 -24z m-161 -190 c97 -8 212 -24 256 -35 44 -10 103 -23 130
-28 28 -5 59 -13 70 -17 l20 -7 -20 16 c-20 16 -19 16 7 17 15 0 30 -4 33 -10
10 -17 63 -11 74 8 6 9 11 12 11 5 0 -6 -7 -19 -16 -27 -23 -24 -4 -19 41 10
l40 25 -28 -25 c-23 -21 -26 -29 -17 -45 5 -11 7 -27 4 -35 -3 -9 1 -69 9
-133 9 -65 23 -179 33 -253 16 -134 22 -155 96 -320 21 -47 87 -161 98 -170 4
-3 37 -45 75 -95 37 -49 78 -96 89 -104 12 -8 23 -17 26 -21 3 -3 32 -28 64
-55 33 -28 76 -65 95 -84 34 -33 34 -32 -14 4 -109 84 -195 160 -232 204 -77
92 -153 194 -153 206 0 7 -7 18 -15 25 -14 12 -75 132 -75 149 0 13 -30 68
-31 56 -1 -19 -29 80 -29 104 0 18 -3 22 -11 14 -10 -10 -9 -32 5 -123 3 -14
5 -25 6 -25 1 0 3 -10 6 -22 7 -41 67 -208 79 -223 7 -8 20 -31 30 -50 23 -46
101 -154 143 -197 19 -19 32 -36 30 -38 -6 -6 -52 39 -88 85 -19 25 -42 53
-51 62 -26 29 -116 209 -134 268 -61 201 -79 335 -77 567 1 153 -1 174 -16
182 -24 13 -142 45 -147 40 -2 -3 -6 -17 -9 -33 -3 -16 -30 -108 -60 -205 -82
-262 -101 -379 -132 -819 -4 -51 -11 -89 -15 -85 -5 5 -4 60 1 123 23 257 42
437 50 470 14 60 22 157 11 140 -5 -8 -7 -18 -5 -22 3 -5 -4 -21 -15 -37 -12
-16 -23 -42 -26 -58 -2 -15 -14 -62 -26 -103 -46 -163 -75 -306 -90 -440 -5
-47 -11 -96 -13 -110 -2 -14 -7 -56 -11 -95 -4 -38 -10 -65 -12 -58 -2 6 1 54
7 105 7 51 13 109 15 128 12 117 18 158 44 280 56 258 86 380 111 435 4 11 27
81 51 155 23 74 51 157 62 183 11 26 17 50 13 54 -3 3 -27 9 -52 13 -48 7 -54
5 -89 -42 -16 -21 -79 -102 -88 -113 -41 -52 -249 -348 -272 -387 -51 -87
-100 -159 -103 -150 -3 11 71 139 124 213 36 49 42 69 22 69 -11 -1 -51 -48
-83 -99 -5 -9 -12 -18 -15 -21 -3 -3 -11 -17 -19 -32 -7 -14 -26 -40 -42 -58
-16 -17 -29 -36 -29 -42 0 -6 -3 -9 -6 -6 -3 4 1 19 10 35 17 34 104 165 114
173 12 9 72 100 72 109 0 5 3 11 8 13 4 2 38 44 76 93 105 136 187 225 208
225 10 0 21 7 25 15 7 20 -6 34 -16 17 -6 -10 -14 -9 -37 3 -16 8 -38 15 -48
15 -22 0 -112 -55 -454 -276 -85 -54 -161 -103 -170 -109 -10 -5 -31 -20 -49
-32 -17 -13 -35 -23 -40 -23 -4 0 9 12 29 26 21 15 40 35 43 45 4 11 12 19 18
19 12 0 67 39 56 40 -14 0 -124 -54 -131 -64 -6 -8 -8 -8 -8 1 0 6 17 21 38
33 206 124 334 195 460 256 115 56 151 81 125 85 -29 4 -82 8 -262 19 -183 11
-285 9 -362 -6 -24 -5 -26 -2 -22 20 l5 26 211 0 c116 0 290 -7 386 -16z
m-409 -148 c0 -20 24 -26 61 -16 51 15 46 4 -10 -23 -28 -13 -51 -21 -51 -16
0 4 6 10 13 12 9 4 9 8 -1 15 -10 6 -21 3 -38 -13 -28 -26 -29 -32 -10 -37 8
-2 -15 -18 -51 -36 -36 -19 -63 -28 -61 -21 2 7 17 17 33 22 17 6 36 16 43 24
11 11 11 13 -4 13 -9 0 -22 -6 -28 -14 -6 -8 -21 -17 -33 -21 -21 -6 -23 -3
-23 32 0 21 -3 49 -7 63 -7 25 -6 25 13 6 17 -18 19 -18 22 -3 4 21 42 23 42
2 0 -16 12 -20 23 -8 4 3 2 12 -4 20 -9 10 -4 13 30 13 28 0 41 -4 41 -14z
m1088 -90 c2 -34 49 -136 61 -136 6 0 10 -3 9 -7 -5 -17 33 -73 45 -67 7 4 9
4 5 -1 -5 -5 3 -23 17 -41 14 -18 25 -37 25 -43 0 -6 4 -11 9 -11 6 0 24 -15
42 -32 l32 -33 -21 31 c-12 17 -18 34 -15 38 4 4 -1 4 -11 0 -14 -5 -17 -4
-12 5 5 7 2 20 -6 29 -8 9 -20 29 -27 43 -7 15 -23 37 -35 50 -27 29 -46 99
-21 79 8 -6 17 -21 21 -33 24 -74 241 -337 279 -337 3 0 16 -9 28 -21 34 -32
170 -98 240 -115 40 -11 86 -15 132 -12 64 5 67 4 40 -8 -83 -36 -203 -25
-308 27 -170 84 -386 270 -457 394 -41 71 -89 183 -90 208 0 26 15 20 18 -7z
m370 -46 c18 -21 32 -50 32 -64 0 -19 5 -26 20 -26 13 0 20 -7 20 -20 0 -12 7
-20 18 -20 9 0 23 -9 30 -20 7 -11 21 -20 32 -20 11 0 20 -6 20 -14 0 -15 52
-46 77 -46 7 0 16 -7 19 -15 4 -8 14 -15 24 -15 10 0 20 -7 24 -15 3 -8 14
-15 23 -15 10 0 27 -10 37 -21 16 -19 16 -23 2 -37 -14 -14 -16 -13 -25 11
-11 27 -34 36 -46 17 -12 -19 -35 -10 -35 13 0 32 -18 49 -42 36 -14 -8 -18
-6 -18 7 0 16 -22 16 -62 -1 -15 -6 -17 -2 -13 24 4 37 -5 45 -31 26 -31 -23
-40 -18 -36 20 4 37 -4 43 -40 24 -26 -14 -38 -1 -15 16 18 13 18 15 1 47 -9
18 -25 44 -35 58 -18 27 -33 90 -21 90 4 0 22 -18 40 -40z m1755 -26 c63 -31
166 -103 181 -126 8 -14 4 -21 -19 -40 -17 -13 -38 -31 -47 -40 -24 -24 -30
-23 -61 10 -15 15 -56 44 -92 62 -54 29 -65 39 -60 55 2 11 5 39 5 63 0 52 16
54 93 16z m-2969 -29 c-4 -8 -9 -15 -13 -15 -3 0 -19 -23 -36 -50 -16 -28 -33
-50 -38 -50 -4 0 -5 -4 -2 -10 3 -5 3 -10 -2 -10 -4 0 -21 -25 -37 -55 -16
-30 -31 -55 -35 -55 -7 0 -74 112 -69 114 2 1 27 16 56 34 29 18 58 32 63 32
5 0 9 5 9 10 0 6 6 10 13 10 6 1 30 14 52 30 22 15 41 29 42 29 1 1 0 -6 -3
-14z m3239 -176 c42 -34 44 -48 21 -131 l-17 -58 -66 0 -67 0 4 35 c2 20 -1
49 -8 66 -12 29 -11 32 31 75 24 24 48 44 54 44 6 0 27 -14 48 -31z m-3077
-75 c-3 -9 -9 -55 -12 -103 -2 -47 -9 -120 -14 -161 -5 -41 -15 -150 -21 -241
l-12 -166 -34 -1 c-20 -1 -31 3 -28 8 3 6 14 10 24 10 15 0 20 17 31 108 8 59
15 136 16 172 4 93 19 242 28 263 5 10 4 17 -3 17 -6 0 -13 -12 -17 -27 -10
-46 -14 -50 -9 -9 3 28 1 36 -6 29 -11 -11 -9 -48 7 -135 4 -25 2 -38 -5 -38
-7 0 -12 -30 -13 -82 -1 -72 -2 -77 -8 -38 -5 31 -6 17 -4 -45 1 -49 0 -114
-3 -143 -5 -49 -8 -53 -27 -47 -12 4 -48 11 -81 15 -39 4 -48 7 -26 8 19 1 32
5 28 8 -3 4 -27 3 -52 -1 -26 -3 -45 -8 -43 -11 2 -2 35 -8 73 -13 37 -6 73
-15 79 -22 8 -9 8 -10 -2 -5 -7 4 -19 2 -27 -4 -8 -6 -22 -10 -32 -7 -14 4
-13 5 5 6 12 0 22 6 22 11 0 13 -33 13 -47 -1 -7 -7 -33 -8 -77 -4 -64 7 -66
8 -50 26 9 10 26 19 38 21 16 2 24 15 34 53 21 79 34 147 28 152 -3 3 10 29
28 57 19 29 37 62 40 73 8 24 36 51 36 35 0 -6 -4 -14 -10 -17 -17 -10 -11
-21 11 -21 26 0 45 28 55 80 5 28 4 37 -5 32 -6 -4 -11 -14 -11 -22 0 -8 -4
-14 -10 -14 -5 0 -10 -5 -10 -11 0 -5 4 -8 9 -5 5 4 7 -3 4 -14 -3 -11 -10
-23 -16 -27 -6 -4 -8 2 -5 15 3 12 1 23 -6 25 -7 3 -6 10 5 23 9 10 40 61 69
112 48 84 71 116 56 76z m508 -184 c15 -36 31 -74 36 -85 5 -11 32 -78 59
-148 28 -70 57 -142 65 -160 40 -87 46 -110 35 -123 -16 -19 -32 -6 -25 20 5
20 -4 54 -32 116 -6 14 -11 20 -11 13 -1 -7 4 -24 11 -38 9 -21 9 -31 0 -46
-20 -32 -15 -73 11 -84 12 -6 21 -16 19 -23 -1 -7 8 -12 22 -12 20 0 23 4 19
28 l-4 27 14 -30 c8 -16 11 -31 8 -32 -23 -8 -326 -53 -335 -50 -6 2 16 9 49
16 33 6 67 16 76 21 9 5 27 6 39 3 16 -4 21 -3 16 5 -8 14 -66 16 -66 3 0 -5
-15 -5 -34 1 -33 11 -34 11 -43 92 l-10 81 -2 -82 c-1 -82 -1 -83 27 -90 26
-7 26 -7 -12 -15 -21 -5 -41 -6 -44 -3 -3 3 1 5 9 5 11 0 13 12 10 52 -3 43
15 341 34 578 2 30 5 64 5 75 1 13 5 8 14 -15 7 -19 25 -64 40 -100z m1253 65
c32 3 105 10 163 15 58 6 121 12 140 15 22 2 29 1 20 -4 -15 -9 -156 -25 -314
-37 l-88 -7 5 -46 c3 -25 11 -79 18 -118 10 -58 11 -94 1 -178 -28 -254 -140
-388 -345 -411 -47 -6 -56 -4 -52 7 3 9 -6 19 -25 28 -38 16 -34 26 4 11 67
-25 157 -4 216 51 75 70 132 202 151 347 14 114 7 154 -32 185 l-31 24 30 12
c33 14 41 34 42 101 l1 45 19 -23 c17 -20 25 -22 77 -17z m-816 -88 c3 -5 10
-9 15 -9 19 -2 128 -57 112 -58 -10 0 -18 -4 -18 -10 0 -5 4 -10 10 -10 6 0 6
-9 -1 -26 -5 -15 -8 -28 -7 -29 4 -4 69 -8 91 -6 26 2 21 30 -8 43 -48 22 -25
28 28 7 28 -12 60 -24 70 -26 9 -3 17 -7 17 -8 0 -6 -110 -189 -119 -198 -5
-5 -24 14 -45 47 -20 31 -36 58 -36 61 0 2 -12 17 -26 32 -36 38 -133 180
-136 198 -1 6 -12 18 -25 28 -13 10 -23 23 -23 28 0 8 89 -48 101 -64z m2129
55 c0 -30 -91 -304 -106 -321 -2 -2 -25 17 -51 42 l-47 46 21 38 c12 21 29 73
39 115 17 74 19 77 48 81 58 7 96 7 96 -1z m-147 -324 l27 -23 -20 -55 c-26
-68 -41 -80 -100 -80 l-46 0 -13 61 -12 62 35 29 c19 15 38 37 41 48 6 20 7
20 33 1 15 -11 39 -30 55 -43z m-1354 -48 c0 -8 -9 -37 -18 -65 -20 -56 -33
-60 -104 -28 -28 12 -36 20 -31 32 4 9 9 30 11 47 l5 32 69 -2 c54 -1 69 -4
68 -16z m1148 6 c1 -1 9 -28 18 -61 12 -46 12 -61 2 -67 -29 -18 -277 -2 -299
20 -9 9 19 77 42 107 7 8 229 9 237 1z m-3257 -445 c10 -15 29 -24 58 -28 23
-3 42 -9 42 -13 0 -14 -20 -113 -24 -117 -4 -5 -127 65 -146 83 -12 12 -11 23
9 86 l24 73 11 -31 c6 -17 18 -41 26 -53z m454 -41 c23 -8 34 -7 51 4 23 15
23 15 28 -47 3 -34 8 -71 12 -83 5 -17 1 -23 -26 -34 -30 -13 -33 -12 -55 15
-21 26 -51 98 -70 165 -6 24 -6 24 12 8 11 -9 32 -22 48 -28z m1100 -6 c16
-25 37 -51 47 -57 27 -17 24 -26 -20 -75 l-39 -42 -35 20 c-35 21 -66 52 -126
130 -26 33 -30 42 -15 36 45 -19 80 -25 98 -20 24 8 46 29 46 43 0 22 16 10
44 -35z m1195 -69 c37 -75 66 -174 55 -185 -5 -4 -37 -10 -71 -12 l-62 -4 -11
53 c-6 29 -24 78 -39 108 l-28 55 45 50 45 51 18 -28 c11 -15 32 -55 48 -88z
m-2466 87 l44 5 15 -76 c9 -42 19 -87 23 -101 l7 -26 -74 6 c-41 4 -79 10 -86
14 -13 8 -17 132 -6 174 5 18 9 20 20 11 8 -7 32 -10 57 -7z m1057 -119 c18
-32 48 -74 67 -95 20 -20 32 -41 29 -47 -7 -11 -174 -67 -180 -60 -7 9 -74
166 -79 185 -4 19 1 22 40 27 27 3 54 13 66 26 12 12 22 21 23 21 1 0 16 -26
34 -57z m-386 -75 c24 -10 37 -9 73 4 32 12 45 13 48 5 9 -32 26 -140 22 -143
-7 -7 -178 16 -197 26 -13 7 -19 29 -25 84 -8 91 -1 109 29 67 11 -17 34 -36
50 -43z m1875 -175 c14 -54 4 -73 -63 -127 l-37 -30 -35 19 c-20 10 -44 27
-55 36 -20 17 -19 17 6 55 14 21 28 48 31 60 5 19 15 24 52 29 26 4 54 7 62 9
23 4 27 0 39 -51z m-184 -148 l55 -35 -38 -34 c-38 -34 -231 -166 -243 -166
-4 0 -10 21 -13 48 -4 26 -9 54 -12 63 -3 11 8 21 36 34 22 10 66 42 98 71 31
29 58 53 59 54 2 0 27 -16 58 -35z m-582 -27 c24 -24 64 -55 89 -70 l46 -27
-23 -58 c-13 -31 -29 -59 -34 -61 -24 -8 -117 62 -204 153 l-48 50 58 27 c32
14 61 27 65 27 4 1 27 -18 51 -41z m307 -145 c7 -27 14 -55 16 -63 5 -20 -83
-80 -117 -80 -13 0 -39 12 -58 28 l-32 27 25 58 c25 55 27 57 63 57 21 0 45 5
53 10 27 18 37 10 50 -37z m-920 -173 c-20 -88 -50 -180 -60 -180 -5 0 -33 14
-62 32 -29 18 -54 33 -56 34 -2 1 5 19 14 40 30 70 33 78 39 131 l7 52 61 13
62 13 3 -40 c2 -22 -2 -65 -8 -95z m-895 109 l62 -11 6 -48 c3 -26 18 -76 32
-110 14 -34 25 -63 23 -64 -67 -44 -109 -66 -117 -62 -31 20 -101 306 -74 306
3 0 34 -5 68 -11z m163 -288 c15 -10 42 -22 60 -26 19 -4 31 -12 28 -18 -2 -7
-13 -36 -22 -64 l-18 -53 -52 0 c-77 0 -98 13 -117 71 l-16 50 26 10 c14 5 37
18 51 29 30 24 28 24 60 1z m599 -11 c50 -29 52 -31 43 -58 -28 -75 -53 -92
-139 -92 -45 0 -46 1 -63 43 -32 82 -32 84 4 91 18 4 44 15 58 26 33 25 36 25
97 -10z m-300 -41 c37 6 70 7 74 3 13 -15 47 -111 41 -116 -8 -9 -330 -7 -335
2 -2 4 7 32 21 63 l26 55 52 -9 c34 -5 77 -5 121 2z"/>
<path d="M3528 3308 c-32 -11 -68 -64 -68 -100 0 -33 32 -62 59 -53 12 3 32
21 45 38 58 78 39 140 -36 115z"/>
</g>
</svg>
